<?xml version="1.0" encoding="UTF-8"?>
<svg width="18px" height="17px" viewBox="0 0 18 17" version="1.1" xmlns="http://www.w3.org/2000/svg" xmlns:xlink="http://www.w3.org/1999/xlink">
    <!-- Generator: sketchtool 55.1 (78136) - https://sketchapp.com -->
    <title>2E344C94-897F-4E47-B6F0-2BEBC5F152E7</title>
    <desc>Created with sketchtool.</desc>
    <g id="Page-1" stroke="none" stroke-width="1" fill="none" fill-rule="evenodd">
        <g id="icons" transform="translate(-38.000000, -194.000000)" fill="#FFFFFF" fill-rule="nonzero">
            <g id="ic_share" transform="translate(38.000000, 194.000000)">
                <path d="M17.2565572,7.74567353 L10.6393641,0.508118625 C10.4325769,0.301331342 10.1223959,0.197937701 9.81221502,0.301331342 C9.50203409,0.404724983 9.39864045,0.714905908 9.39864045,1.02508683 L9.39864045,4.33368336 C1.02375549,6.60834347 0.3,14.6730475 0.3,14.6730475 C0.3,14.9832284 0.403393641,15.2934094 0.713574566,15.396803 C1.02375549,15.5001966 1.33393641,15.5001966 1.5407237,15.2934094 C1.5407237,15.2934094 4.84932022,12.2949938 9.29524681,11.9848128 L9.29524681,15.5001966 C9.29524681,15.8103776 9.50203409,16.1205585 9.81221502,16.2239521 C10.1592375,16.3289266 10.547642,16.1936105 10.7427578,16.0171648 L17.3599508,8.77960994 C17.5667381,8.46942902 17.5667381,8.05585445 17.2565572,7.74567353 Z M10.9495451,13.5357175 L10.9495451,11.2610573 C10.9495451,10.8474828 10.6393641,10.5373018 10.2257896,10.5373018 C10.2257896,10.5373018 10.1223959,10.5373018 10.1223959,10.5373018 C6.81379941,10.5373018 4.02217109,11.8814192 2.36787283,13.0187492 C3.09162832,10.7440891 5.15950115,7.02191804 10.4325769,5.78119434 C10.7427578,5.6778007 11.0529387,5.36761977 11.0529387,5.05743885 L11.0529387,2.98956602 L15.7056526,8.26264174 L10.9495451,13.5357175 Z" id="Shape"></path>
            </g>
        </g>
    </g>
</svg>