<?xml version="1.0" encoding="UTF-8"?>
<svg width="16px" height="16px" viewBox="-1 -1 16 16" version="1.1" xmlns="http://www.w3.org/2000/svg" xmlns:xlink="http://www.w3.org/1999/xlink">
    <path d="M0.469669914,0.469669914 C0.762563133,0.176776695 1.23743687,0.176776695 1.53033009,0.469669914 L1.53033009,0.469669914 L7,5.939 L12.4696699,0.469669914 C12.7359365,0.203403352 13.1526002,0.1791973 13.4462117,0.397051761 L13.5303301,0.469669914 C13.8232233,0.762563133 13.8232233,1.23743687 13.5303301,1.53033009 L13.5303301,1.53033009 L8.061,7 L13.5303301,12.4696699 C13.7965966,12.7359365 13.8208027,13.1526002 13.6029482,13.4462117 L13.5303301,13.5303301 C13.2374369,13.8232233 12.7625631,13.8232233 12.4696699,13.5303301 L12.4696699,13.5303301 L7,8.061 L1.53033009,13.5303301 C1.26406352,13.7965966 0.847399841,13.8208027 0.553788347,13.6029482 L0.469669914,13.5303301 C0.176776695,13.2374369 0.176776695,12.7625631 0.469669914,12.4696699 L0.469669914,12.4696699 L5.939,7 L0.469669914,1.53033009 C0.203403352,1.26406352 0.1791973,0.847399841 0.397051761,0.553788347 Z" id="path-1"></path>
</svg>