<?xml version="1.0" encoding="UTF-8"?>
<svg width="101px" height="28px" viewBox="0 0 101 28" version="1.1" xmlns="http://www.w3.org/2000/svg" xmlns:xlink="http://www.w3.org/1999/xlink">
    <title>logo</title>
    <g id="pricing-page" stroke="none" stroke-width="1" fill="none" fill-rule="evenodd">
        <g id="assets" transform="translate(-33.000000, -124.000000)" fill="#FFFFFF" fill-rule="nonzero">
            <g id="logo" transform="translate(33.000000, 124.000000)">
                <path d="M31.4557028,8.63975368 C31.4589779,8.00897721 31.9712505,7.49937286 32.6020355,7.49937286 L36.6433642,7.49937286 C39.3098079,7.49937286 41.2858331,9.54682068 41.2858331,12.1073208 C41.2858331,14.667821 39.3086175,16.7152688 36.6243182,16.7152688 L33.9102595,16.7152688 L33.9102595,19.165064 C33.9102598,19.8345174 33.3679091,20.3774008 32.698456,20.3780578 L32.6686966,20.3780578 C31.9987786,20.3780578 31.4557028,19.834982 31.4557028,19.165064 L31.4557028,8.63975368 Z M33.9102595,9.77061149 L33.9102595,14.4321264 L36.4671885,14.4321264 C37.8623099,14.4321264 38.8146112,13.3905469 38.8146112,12.101369 C38.8146112,10.8121911 37.8623099,9.77061149 36.4671885,9.77061149 L33.9102595,9.77061149 Z" id="Shape"></path>
                <path d="M43.7761011,8.63975368 C43.7800284,8.00878519 44.2926435,7.49937286 44.9236242,7.49937286 L48.6637876,7.49937286 C51.7587669,7.49937286 53.5193339,9.31826837 53.5193339,12.0228041 C53.5193339,13.55839 52.7777293,15.005888 51.376656,15.7653483 L52.9324782,18.5948736 C53.1393001,18.9705068 53.1322039,19.4274742 52.9138182,19.7965044 C52.6954326,20.1655346 52.2982788,20.3916727 51.8694719,20.3911537 C51.4154057,20.3908873 50.9995884,20.1368022 50.792181,19.7328736 L49.1351767,16.5069529 L46.2306577,16.5069529 L46.2306577,19.165064 C46.2306581,19.8345174 45.6883074,20.3774008 45.0188543,20.3780578 L44.9890949,20.3780578 C44.3191769,20.3780578 43.7761011,19.834982 43.7761011,19.165064 L43.7761011,8.63975368 Z M46.2306577,9.78846714 L46.2306577,14.238095 L48.4483294,14.238095 C50.4434007,14.238095 51.067158,13.1965155 51.067158,11.9073376 C51.067158,10.6181597 50.2910325,9.78846714 48.4483294,9.78846714 L46.2306577,9.78846714 Z" id="Shape"></path>
                <path d="M55.8285416,13.9369297 C55.8431232,10.2969905 58.8039694,7.35708893 62.4439196,7.36840479 C66.0838697,7.379852 69.0262732,10.338212 69.0180037,13.9781706 C69.0096641,17.618129 66.0537924,20.5630322 62.4138282,20.5578185 C60.6617169,20.5559228 58.9824318,19.8566207 57.7468561,18.6143444 C56.5112804,17.3720682 55.8210705,15.6890256 55.8285416,13.9369297 Z M66.5801465,13.9369297 C66.5558893,11.647513 64.6853794,9.80848205 62.3958807,9.82308143 C60.1063819,9.83768079 58.2594769,11.7004164 58.2643985,13.9899564 C58.2693597,16.2794963 60.1242878,18.1342426 62.4138282,18.1389593 C63.5236312,18.1348658 64.5862636,17.6896594 65.3675495,16.9014515 C66.1488355,16.1132436 66.5846517,15.0467256 66.5789561,13.9369297 L66.5801465,13.9369297 Z" id="Shape"></path>
                <path d="M73.5355172,7.49932458 C73.9237144,7.49818354 74.2889355,7.68322893 74.5175779,7.99695029 L78.0220468,12.8560678 L81.5681788,8.10765532 C81.8610495,7.72199351 82.3183464,7.49665243 82.8025994,7.49932458 C83.2111248,7.49932458 83.6029183,7.66165899 83.8917895,7.95053016 C84.1806605,8.23940133 84.3429467,8.63119471 84.3429467,9.03972023 L84.3429467,19.165064 C84.3429467,19.834982 83.799871,20.3780578 83.1299529,20.3780578 L83.1001935,20.3780578 C82.4307405,20.3774008 81.8883897,19.8345174 81.8883901,19.165064 L81.8883901,11.4478522 L78.8148376,15.593934 C78.6252224,15.8509767 78.3247948,16.0026827 78.0053815,16.0026827 C77.6859682,16.0026827 77.3855406,15.8509767 77.1959254,15.593934 L74.1735591,11.4990384 L74.1735591,19.165064 C74.1735594,19.8345174 73.6312087,20.3774008 72.9617556,20.3780578 L72.9319962,20.3780578 C72.6102903,20.3780578 72.3017606,20.2502606 72.0742801,20.0227801 C71.8467996,19.7952996 71.7190024,19.4867699 71.7190024,19.165064 L71.7190024,9.30874536 C71.722936,8.3083023 72.5350664,7.49932458 73.5355172,7.49932458 Z" id="Path"></path>
                <path d="M87.0473595,13.9369297 C87.0625958,10.2979609 90.0229546,7.35925279 93.6619364,7.37078264 C97.3009181,7.38244893 100.242485,10.3399675 100.234435,13.9789587 C100.226319,17.61795 97.2716434,20.5623721 93.6326461,20.5578152 C91.8805347,20.5559228 90.2012497,19.8566207 88.965674,18.6143444 C87.7300982,17.3720682 87.0398883,15.6890256 87.0473595,13.9369297 Z M97.7990618,13.9369297 C97.7747072,11.647513 95.9041973,9.80848205 93.6146985,9.82308143 C91.3251997,9.83768079 89.4782948,11.7004164 89.4832164,13.9899564 C89.4881775,16.2794963 91.3431056,18.1342426 93.6326461,18.1389593 C94.7425574,18.134865 95.8053113,17.6896966 96.5867862,16.9015234 C97.3682611,16.1133501 97.8043429,15.0468356 97.7990618,13.9369297 Z" id="Shape"></path>
                <path d="M22.4814533,11.7513982 L4.03418645,0.491625554 C3.24948638,0.0116694642 2.26668867,-0.00681634231 1.46449468,0.443291269 C0.662300703,0.89339888 0.16605503,1.74183897 0.16665273,2.66168218 L0.16665273,15.666547 C0.146710351,16.5882754 0.627040218,17.4486517 1.42212256,17.9153691 C2.21720491,18.3820864 3.20257995,18.3820864 3.9976623,17.9153691 C4.79274464,17.4486517 5.27307451,16.5882754 5.25313213,15.666547 L5.25313213,7.19344606 L8.26002353,9.02900684 L14.2940427,12.7120322 L14.3261829,12.7322686 L16.3212542,13.9500239 L11.5180844,16.9604864 L9.44563867,18.257997 C8.63821356,18.7222442 8.14905104,19.5906295 8.17045852,20.5217592 C8.19186601,21.4528888 8.72042047,22.2978759 9.54832807,22.7245255 C10.3762357,23.151175 11.3711145,23.091266 12.1418418,22.5683508 L22.4981186,16.0760366 C23.2445365,15.6083157 23.6957031,14.7875908 23.690696,13.9067522 C23.68552,13.0259136 23.2248957,12.2104591 22.4731207,11.7513982 L22.4814533,11.7513982 Z M2.78548135,22.4219345 C1.70641579,22.4219345 0.733624382,23.0720117 0.32079516,24.0689843 C-0.092034062,25.0659569 0.136415647,26.2134473 0.899600482,26.9762916 C1.66278532,27.7391359 2.81037748,27.9670734 3.8071658,27.5537992 C4.80395412,27.1405251 5.45359691,26.1674436 5.45311594,25.0883781 C5.45114682,23.6160935 4.25776675,22.4232459 2.78548135,22.4219345 Z" id="Shape"></path>
            </g>
        </g>
    </g>
</svg>