<?xml version="1.0" encoding="UTF-8"?>
<svg width="14px" height="14px" viewBox="0 0 14 14" version="1.1" xmlns="http://www.w3.org/2000/svg" xmlns:xlink="http://www.w3.org/1999/xlink">
    <!-- Generator: sketchtool 53.1 (72631) - https://sketchapp.com -->
    <title>4618FA4B-620C-4258-9534-BCEA5EA0B212</title>
    <desc>Created with sketchtool.</desc>
    <g id="Page-1" stroke="none" stroke-width="1" fill="none" fill-rule="evenodd">
        <g id="icons" transform="translate(-36.000000, -33.000000)" fill="#000000" fill-rule="nonzero">
            <path d="M49.7871392,45.7537314 L46.3358997,42.2877309 C47.223274,41.2691432 47.7094716,39.9875513 47.7094716,38.6533587 C47.7094716,35.5361459 45.0829862,33 41.8547358,33 C38.6264854,33 36,35.5361459 36,38.6533587 C36,41.7705715 38.6264854,44.3067174 41.8547358,44.3067174 C43.0666661,44.3067174 44.2215764,43.9537512 45.2089903,43.2837053 L48.6864488,46.7760061 C48.831799,46.9217645 49.0272963,47.0021405 49.236794,47.0021405 C49.4350914,47.0021405 49.6232066,46.9291384 49.7660112,46.7964074 C50.0694393,46.5144769 50.0791123,46.0469687 49.7871392,45.7537314 Z M41.8547358,34.4747892 C44.2409225,34.4747892 46.1821492,36.3492463 46.1821492,38.6533587 C46.1821492,40.9574711 44.2409225,42.8319282 41.8547358,42.8319282 C39.4685491,42.8319282 37.5273224,40.9574711 37.5273224,38.6533587 C37.5273224,36.3492463 39.4685491,34.4747892 41.8547358,34.4747892 Z" id="search"></path>
        </g>
    </g>
</svg>