<?xml version="1.0" encoding="UTF-8"?>
<svg width="126px" height="42px" viewBox="0 0 126 42" version="1.1" xmlns="http://www.w3.org/2000/svg" xmlns:xlink="http://www.w3.org/1999/xlink">
    <!-- Generator: sketchtool 61.2 (101010) - https://sketch.com -->
    <title>CE741C20-7F4A-406F-ABC1-D2D01E501311</title>
    <desc>Created with sketchtool.</desc>
    <g id="Footer-Design-25.12" stroke="none" stroke-width="1" fill="none" fill-rule="evenodd">
        <g id="Assets" transform="translate(-153.000000, -160.000000)">
            <g id="Group" transform="translate(153.000000, 160.000000)">
                <g fill-rule="nonzero" id="Path">
                    <path d="M11.2944586,-3.73034936e-14 C10.8600783,-3.73034936e-14 10.43091,-3.73034936e-14 9.99767861,0.0021 C9.6350237,0.0042 9.27525913,0.0103005 8.90912159,0.015435 C8.11370167,0.0237318938 7.3201523,0.0857600729 6.5353696,0.2009805 C5.7516892,0.318709259 4.99255816,0.540661527 4.2836516,0.8593305 C3.57561206,1.1806953 2.92865608,1.59827591 2.36625369,2.0969235 C1.80089879,2.59416884 1.32963183,3.1689172 0.970574229,3.799068 C0.610525651,4.42796458 0.360866805,5.10188521 0.23022042,5.797554 C0.0983319463,6.49234415 0.0273615585,7.19514657 0.0179461763,7.899654 C0.00695340297,8.221584 0.0057925282,8.544585 0,8.866557 L0,33.13653 C0.0057925282,33.462555 0.00695340297,33.778395 0.0179461763,34.104525 C0.0273644458,34.8089975 0.0983348348,35.5117648 0.23022042,36.20652 C0.360506051,36.9025955 0.610179659,37.576903 0.970574229,38.206035 C1.32946879,38.834148 1.80080203,39.4065695 2.36625369,39.90105 C2.92652363,40.4019148 3.57389778,40.8197795 4.2836516,41.138685 C4.99255278,41.4582069 5.75160197,41.6814802 6.5353696,41.801025 C7.32028571,41.9153225 8.11375347,41.9773759 8.90912159,41.986665 C9.27525913,41.993805 9.6350237,41.9979 9.99767861,41.9979 C10.4308981,42 10.860102,42 11.2944586,42 L114.711914,42 C115.137647,42 115.570251,42 115.995984,41.9979 C116.356921,41.9979 116.727098,41.993805 117.088035,41.986665 C117.8819,41.9778699 118.673874,41.9158125 119.457168,41.801025 C120.243464,41.6806387 121.005234,41.4574244 121.717557,41.138685 C122.42667,40.8195948 123.073447,40.4017415 123.633237,39.90105 C124.19723,39.4046329 124.669569,38.8326301 125.03292,38.206035 C125.39061,37.5764453 125.637907,36.9021917 125.766285,36.20652 C125.898382,35.5116695 125.971871,34.8090585 125.986141,34.104525 C125.99076,33.778395 125.99076,33.462555 125.99076,33.13653 C126,32.755065 126,32.3757 126,31.98804 L126,10.0129365 C126,9.628416 126,9.246972 125.99076,8.866557 C125.99076,8.544585 125.99076,8.221584 125.986141,7.899612 C125.971873,7.19504357 125.898385,6.49239745 125.766285,5.797512 C125.63755,5.10224568 125.390267,4.42837844 125.03292,3.799026 C124.301716,2.53595588 123.142238,1.50782667 121.717557,0.859236 C121.005232,0.541345749 120.24338,0.31945243 119.457168,0.200886 C118.674009,0.0851579223 117.881953,0.0231081531 117.088035,0.015288 C116.727098,0.010164 116.356921,0.004011 115.995984,0.0019635 C115.570251,-3.73034936e-14 115.137647,-3.73034936e-14 114.711914,-3.73034936e-14 L11.2944586,-3.73034936e-14 Z" fill="#A6A6A6"></path>
                    <path d="M10.0172834,41.08125 C9.65645181,41.08125 9.30433664,41.077155 8.94633551,41.070015 C8.20470717,41.0614478 7.46481219,41.0042063 6.73271869,40.89876 C6.05007844,40.7945246 5.38878353,40.6006277 4.77064654,40.323465 C4.15817755,40.0485988 3.59955659,39.6881865 3.11618369,39.256035 C2.62581408,38.828974 2.21755898,38.3336562 1.9075968,37.78971 C1.59421911,37.2422286 1.37734309,36.6553945 1.26452355,36.04965 C1.14268824,35.3987706 1.07677029,34.7406289 1.06733811,34.0809 C1.05982966,33.859455 1.05,33.122145 1.05,33.122145 L1.05,8.866557 C1.05,8.866557 1.06046919,8.1405765 1.06739732,7.92729 C1.07642857,7.26860615 1.1419632,6.61148575 1.263434,5.9616165 C1.37646179,5.35421258 1.5935057,4.76568631 1.90705202,4.2164115 C2.21587501,3.67284104 2.62186357,3.17715331 3.10927924,2.748564 C3.59614707,2.31590249 4.15655495,1.95363432 4.77006624,1.6749705 C5.38678256,1.39869828 6.04682771,1.20616917 6.72808809,1.1038335 C7.46258591,0.997327945 8.20504951,0.939745889 8.94924888,0.9315705 L10.0178637,0.91875 L115.976345,0.91875 L117.057727,0.932085 C117.795157,0.939854158 118.530876,0.996922506 119.258624,1.1028045 C119.946781,1.20642382 120.613705,1.40029631 121.237466,1.678047 C122.466551,2.23963535 123.466634,3.1281211 124.097543,4.2189735 C124.406085,4.76445644 124.619781,5.34818209 124.731379,5.9503395 C124.854296,6.60554095 124.923089,7.26782525 124.93721,7.93191 C124.940644,8.22927 124.940644,8.54868 124.940644,8.866557 C124.95,9.260307 124.95,9.6350835 124.95,10.0129365 L124.95,31.98804 C124.95,32.369505 124.95,32.74173 124.940644,33.117 C124.940644,33.45846 124.940644,33.771255 124.936025,34.093185 C124.92221,34.7454195 124.854564,35.3958825 124.733629,36.03936 C124.623122,36.6494742 124.407427,37.2408888 124.094109,37.79286 C123.781955,38.3309022 123.376045,38.8219295 122.891337,39.247845 C122.407529,39.6823189 121.847922,40.0448398 121.234031,40.32147 C120.611998,40.6007634 119.946056,40.7953773 119.258624,40.89876 C118.526586,41.004769 117.78662,41.0620142 117.044936,41.070015 C116.698056,41.077155 116.334832,41.08125 115.982148,41.08125 L114.69837,41.08335 L10.0172834,41.08125 Z" fill="#000000"></path>
                </g>
                <g id="_Group_" transform="translate(10.500000, 6.562500)">
                    <g id="_Group_2" transform="translate(0.000000, 1.312500)" fill="#FFFFFF" fill-rule="nonzero">
                        <g id="_Group_3">
                            <g id="Group-10">
                                <path d="M16.1086905,12.456864 C16.1316403,10.6755696 17.0654956,9.03019542 18.5830785,8.097201 C17.6213548,6.72368841 16.0682781,5.88407227 14.3923605,5.831637 C12.6291585,5.646564 10.919811,6.8867085 10.0213155,6.8867085 C9.105432,6.8867085 7.722057,5.850012 6.2323905,5.8806615 C4.27237783,5.94398534 2.48941053,7.03135175 1.5358245,8.744925 C-0.4948755,12.260766 1.019844,17.4278685 2.9650845,20.269809 C3.9383295,21.6614265 5.0757735,23.215899 6.564096,23.160774 C8.020509,23.1003675 8.564451,22.23207 10.322466,22.23207 C12.064164,22.23207 12.5744955,23.160774 14.093016,23.125725 C15.655815,23.100357 16.6404525,21.727923 17.5795515,20.323128 C18.2788264,19.3315497 18.8169174,18.2356397 19.1738925,17.0759925 C17.3177619,16.2909403 16.1108569,14.4721861 16.1086905,12.456864 L16.1086905,12.456864 Z" id="_Path_"></path>
                                <path d="M13.240479,3.9625845 C14.0925819,2.939666 14.5123807,1.62487758 14.410725,0.2974335 C13.1089012,0.434165012 11.9063807,1.05635216 11.042766,2.040024 C10.1899862,3.01054848 9.75796986,4.28025431 9.8418705,5.5694835 C11.1611502,5.5830671 12.4137784,4.99081088 13.240479,3.9625845 L13.240479,3.9625845 Z" id="_Path_2"></path>
                                <path d="M34.51875,19.6377825 L29.54868,19.6377825 L28.355124,23.162055 L26.25,23.162055 L30.95757,10.123155 L33.14472,10.123155 L37.85229,23.162055 L35.7112665,23.162055 L34.51875,19.6377825 Z M30.0634215,18.011511 L34.0030215,18.011511 L32.060931,12.2918775 L32.006583,12.2918775 L30.0634215,18.011511 Z" id="Shape"></path>
                                <path d="M48.019041,18.4093665 C48.019041,21.3635205 46.437888,23.261511 44.051805,23.261511 C42.8184595,23.3260279 41.6567155,22.6800322 41.0607435,21.598311 L41.0155935,21.598311 L41.0155935,26.30691 L39.0642735,26.30691 L39.0642735,13.655649 L40.9530765,13.655649 L40.9530765,15.236802 L40.9889655,15.236802 C41.6114142,14.1618623 42.774411,13.5161448 44.015916,13.5561825 C46.4286165,13.556193 48.019041,15.463413 48.019041,18.4093665 Z M46.013373,18.4093665 C46.013373,16.4847165 45.0187395,15.219372 43.501164,15.219372 C42.010248,15.219372 41.007414,16.5113655 41.007414,18.4093665 C41.007414,20.3247975 42.010248,21.6075615 43.501164,21.6075615 C45.01875,21.6075615 46.013373,20.351457 46.013373,18.4093665 Z" id="Shape"></path>
                                <path d="M58.482123,18.4093665 C58.482123,21.3635205 56.90097,23.261511 54.514887,23.261511 C53.2815415,23.3260279 52.1197975,22.6800322 51.5238255,21.598311 L51.4786755,21.598311 L51.4786755,26.30691 L49.5273555,26.30691 L49.5273555,13.655649 L51.4161165,13.655649 L51.4161165,15.236802 L51.4520055,15.236802 C52.0744588,14.161863 53.23746,13.5161492 54.4789665,13.556193 C56.8917405,13.556193 58.482123,15.463413 58.482123,18.4093665 Z M56.4764655,18.4093665 C56.4764655,16.4847165 55.4818215,15.219372 53.964246,15.219372 C52.47333,15.219372 51.470496,16.5113655 51.470496,18.4093665 C51.470496,20.3247975 52.47333,21.6075615 53.964246,21.6075615 C55.481832,21.6075615 56.4764655,20.351457 56.4764655,18.4093665 L56.4764655,18.4093665 Z" id="Shape"></path>
                                <path d="M65.39736,19.5290865 C65.541945,20.822109 66.79806,21.6710865 68.5145475,21.6710865 C70.159278,21.6710865 71.3425755,20.822067 71.3425755,19.656189 C71.3425755,18.6441255 70.628901,18.038139 68.9390625,17.622843 L67.249224,17.215758 C64.8549405,16.637439 63.7434105,15.5177085 63.7434105,13.700715 C63.7434105,11.451006 65.70396,9.905742 68.487888,9.905742 C71.243088,9.905742 73.1318805,11.451006 73.195458,13.700715 L71.225658,13.700715 C71.107743,12.399492 70.032102,11.61405 68.4601785,11.61405 C66.888255,11.61405 65.8126245,12.408732 65.8126245,13.56537 C65.8126245,14.4871965 66.4996395,15.0296265 68.1802485,15.44487 L69.6168165,15.797607 C72.292059,16.430274 73.403589,17.504907 73.403589,19.412106 C73.403589,21.851508 71.4604695,23.379342 68.3699415,23.379342 C65.478336,23.379342 63.5259975,21.887397 63.3998715,19.528992 L65.39736,19.5290865 Z" id="Path"></path>
                                <path d="M77.614887,11.40594 L77.614887,13.655649 L79.422651,13.655649 L79.422651,15.200913 L77.614887,15.200913 L77.614887,20.4416835 C77.614887,21.255843 77.9768535,21.6352395 78.771525,21.6352395 C78.986136,21.6314972 79.2003998,21.6164263 79.4134215,21.5900895 L79.4134215,23.126124 C79.0561362,23.1928825 78.6929859,23.2231172 78.32958,23.216361 C76.40493,23.216361 75.6543375,22.493457 75.6543375,20.649804 L75.6543375,15.200913 L74.2721175,15.200913 L74.2721175,13.655649 L75.6543165,13.655649 L75.6543165,11.40594 L77.614887,11.40594 Z" id="Path"></path>
                                <path d="M80.4696165,18.4093665 C80.4696165,15.418305 82.231233,13.538763 84.978264,13.538763 C87.734514,13.538763 89.48793,15.418263 89.48793,18.4093665 C89.48793,21.408639 87.7437435,23.27997 84.978264,23.27997 C82.213761,23.27997 80.4696165,21.4086285 80.4696165,18.4093665 Z M87.499692,18.4093665 C87.499692,16.3575615 86.5594065,15.1465755 84.9782535,15.1465755 C83.3971005,15.1465755 82.457844,16.366791 82.457844,18.4093665 C82.457844,20.469372 83.3971005,21.671139 84.9782535,21.671139 C86.5594065,21.671139 87.499692,20.469372 87.499692,18.4093665 L87.499692,18.4093665 Z" id="Shape"></path>
                                <path d="M91.096719,13.655649 L92.9578125,13.655649 L92.9578125,15.273699 L93.0029625,15.273699 C93.2624973,14.2320868 94.2169017,13.5152131 95.289579,13.556172 C95.5144512,13.5553868 95.738703,13.5798083 95.958135,13.628979 L95.958135,15.454173 C95.6742475,15.3674255 95.3781041,15.3275969 95.081385,15.336258 C94.5077156,15.3129852 93.9525309,15.5416115 93.561606,15.9621063 C93.1706811,16.3826011 92.9830719,16.9529543 93.048039,17.523408 L93.048039,23.162034 L91.096719,23.162034 L91.096719,13.655649 Z" id="Path"></path>
                                <path d="M104.954881,20.3699055 C104.692381,22.095633 103.011762,23.2799595 100.861519,23.2799595 C98.09604,23.2799595 96.379542,21.427077 96.379542,18.4544745 C96.379542,15.4726425 98.1052695,13.5387525 100.779493,13.5387525 C103.409617,13.5387525 105.063577,15.3454875 105.063577,18.2278635 L105.063577,18.8964195 L98.349321,18.8964195 L98.349321,19.0143345 C98.2866333,19.7220677 98.5310147,20.4226254 99.0203024,20.9378084 C99.5095902,21.4529914 100.196625,21.733145 100.906648,21.707007 C101.853583,21.7957316 102.746357,21.2519766 103.102009,20.369895 L104.954881,20.3699055 Z M98.358532,17.5326585 L103.111228,17.5326585 C103.14664,16.8967024 102.915148,16.2748142 102.472524,15.8168131 C102.0299,15.358812 101.416277,15.1062244 100.779493,15.1199055 C100.137672,15.1160753 99.5209118,15.3687814 99.0662983,15.8218549 C98.6116848,16.2749285 98.3568876,16.8908281 98.358532,17.5326585 L98.358532,17.5326585 Z" id="Shape"></path>
                                <path d="M29.818866,0.3087 C30.6472599,0.24925339 31.4586534,0.5644248 32.0297159,1.16746541 C32.6007783,1.77050602 32.8713167,2.59785203 32.766867,3.421782 C32.766867,5.4233445 31.6850835,6.573882 29.818866,6.573882 L27.5558325,6.573882 L27.5558325,0.3087 L29.818866,0.3087 Z M28.52892,5.68785 L29.71017,5.68785 C30.302183,5.72323711 30.8786274,5.48998696 31.2794459,5.05286438 C31.6802645,4.6157418 31.8627851,4.02128414 31.7763285,3.43455 C31.856495,2.85025076 31.6713459,2.26069853 31.2715211,1.82714068 C30.8716963,1.39358283 30.299037,1.16139061 29.71017,1.1940705 L28.52892,1.1940705 L28.52892,5.68785 Z" id="Shape"></path>
                                <path d="M33.8660805,4.207707 C33.785007,3.3602363 34.1913743,2.54006753 34.9147532,2.09117724 C35.6381321,1.64228694 36.5534524,1.64228694 37.2768313,2.09117724 C38.0002102,2.54006753 38.4065775,3.3602363 38.325504,4.207707 C38.40812,5.05608838 38.0021236,5.8778479 37.2781033,6.32770457 C36.5540831,6.77756123 35.6375014,6.77756123 34.9134812,6.32770457 C34.1894609,5.8778479 33.7834645,5.05608838 33.8660805,4.207707 Z M37.365741,4.207707 C37.365741,3.1828335 36.9053265,2.5834935 36.0973305,2.5834935 C35.2862475,2.5834935 34.8299805,3.1828335 34.8299805,4.2077175 C34.8299805,5.240802 35.286279,5.835522 36.0973305,5.835522 C36.9053475,5.835522 37.365741,5.236686 37.365741,4.207707 L37.365741,4.207707 Z" id="Shape"></path>
                                <polygon id="Path" points="44.2532895 6.5737875 43.285326 6.5737875 42.308133 3.091557 42.2343075 3.091557 41.2612095 6.5737875 40.302465 6.5737875 38.9991945 1.845711 39.945633 1.845711 40.792605 5.453511 40.8623355 5.453511 41.8344045 1.845711 42.7295715 1.845711 43.7016405 5.453511 43.775466 5.453511 44.6183325 1.845711 45.551436 1.845711"></polygon>
                                <path d="M46.647573,1.845711 L47.5458165,1.845711 L47.5458165,2.5968075 L47.615547,2.5968075 C47.8580286,2.04380184 48.424638,1.70552285 49.0264845,1.754445 C49.4924921,1.71940836 49.9491467,1.8981794 50.2675118,2.24028217 C50.585877,2.58238495 50.7314042,3.05069495 50.663004,3.512985 L50.663004,6.573735 L49.7299005,6.573735 L49.7299005,3.747303 C49.7299005,2.9874915 49.399728,2.609628 48.7096365,2.609628 C48.3935506,2.59490607 48.0867977,2.7189567 47.8697988,2.94925762 C47.6528,3.17955855 47.5471973,3.49314106 47.5806765,3.8077935 L47.5806765,6.5737875 L46.647573,6.5737875 L46.647573,1.845711 Z" id="Path"></path>
                                <polygon id="Path" points="52.149825 0 53.0829285 0 53.0829285 6.573777 52.149825 6.573777"></polygon>
                                <path d="M54.380046,4.207707 C54.2990348,3.36018086 54.7054662,2.53999133 55.4288988,2.09109411 C56.1523313,1.64219689 57.0676987,1.64219689 57.7911312,2.09109411 C58.5145638,2.53999133 58.9209952,3.36018086 58.839984,4.207707 C58.9224951,5.05611875 58.5164243,5.87785505 57.7923681,6.3276919 C57.0683119,6.77752875 56.1517181,6.77752875 55.4276619,6.3276919 C54.7036057,5.87785505 54.2975349,5.05611875 54.380046,4.207707 L54.380046,4.207707 Z M57.8797065,4.207707 C57.8797065,3.1828335 57.419292,2.5834935 56.611296,2.5834935 C55.800213,2.5834935 55.343946,3.1828335 55.343946,4.2077175 C55.343946,5.240802 55.8002445,5.835522 56.611296,5.835522 C57.4193025,5.835522 57.8797065,5.236686 57.8797065,4.207707 L57.8797065,4.207707 Z" id="Shape"></path>
                                <path d="M59.8223115,5.236686 C59.8223115,4.3856085 60.4560075,3.8949645 61.5808515,3.825234 L62.861568,3.7514085 L62.861568,3.343305 C62.861568,2.8439355 62.5313955,2.561958 61.8936045,2.561958 C61.37271,2.561958 61.0117725,2.7531945 60.9082005,3.0874725 L60.004833,3.0874725 C60.100194,2.2753605 60.864111,1.754466 61.936665,1.754466 C63.1220205,1.754466 63.7905765,2.344566 63.7905765,3.343305 L63.7905765,6.573798 L62.892333,6.573798 L62.892333,5.9093475 L62.8185075,5.9093475 C62.5134285,6.39458015 61.9708988,6.67817139 61.3983405,6.6516975 C60.9969634,6.69344741 60.5966562,6.56345619 60.2963821,6.29386007 C59.996108,6.02426394 59.8238929,5.64022548 59.8223115,5.236686 L59.8223115,5.236686 Z M62.861568,4.8326775 L62.861568,4.4373945 L61.7069775,4.51122 C61.0558515,4.554795 60.760539,4.776282 60.760539,5.1931005 C60.760539,5.618634 61.129677,5.866266 61.637289,5.866266 C61.9377844,5.89668436 62.2377592,5.8038488 62.4685429,5.60901137 C62.6993266,5.41417393 62.8411577,5.13401811 62.861568,4.8326775 Z" id="Shape"></path>
                                <path d="M65.0169345,4.207707 C65.0169345,2.7137145 65.784957,1.767276 66.9795315,1.767276 C67.5827321,1.73948264 68.1476854,2.06269651 68.4294345,2.596776 L68.499165,2.596776 L68.499165,-3.73034936e-14 L69.4322685,-3.73034936e-14 L69.4322685,6.573777 L68.5381305,6.573777 L68.5381305,5.8267755 L68.464305,5.8267755 C68.1612584,6.35642383 67.5893448,6.6741743 66.979542,6.6516975 C65.7767565,6.65175 65.0169345,5.7052905 65.0169345,4.207707 Z M65.9808345,4.207707 C65.9808345,5.210541 66.4535445,5.8139865 67.244121,5.8139865 C68.030571,5.8139865 68.5166265,5.2018365 68.5166265,4.2118125 C68.5166265,3.2264085 68.025468,2.605533 67.244121,2.605533 C66.458637,2.605533 65.980803,3.2130735 65.980803,4.207707 L65.9808345,4.207707 Z" id="Shape"></path>
                                <path d="M73.2928665,4.207707 C73.211793,3.3602363 73.6181603,2.54006753 74.3415392,2.09117724 C75.0649181,1.64228694 75.9802384,1.64228694 76.7036173,2.09117724 C77.4269962,2.54006753 77.8333635,3.3602363 77.75229,4.207707 C77.834906,5.05608838 77.4289096,5.8778479 76.7048893,6.32770457 C75.9808691,6.77756123 75.0642874,6.77756123 74.3402672,6.32770457 C73.6162469,5.8778479 73.2102505,5.05608838 73.2928665,4.207707 L73.2928665,4.207707 Z M76.7925165,4.207707 C76.7925165,3.1828335 76.3321125,2.5834935 75.5241165,2.5834935 C74.7130335,2.5834935 74.2567665,3.1828335 74.2567665,4.2077175 C74.2567665,5.240802 74.713065,5.835522 75.5241165,5.835522 C76.332123,5.835522 76.7925165,5.236686 76.7925165,4.207707 Z" id="Shape"></path>
                                <path d="M79.004289,1.845711 L79.9025325,1.845711 L79.9025325,2.5968075 L79.972263,2.5968075 C80.2147446,2.04380184 80.781354,1.70552285 81.3832005,1.754445 C81.8492081,1.71940836 82.3058627,1.8981794 82.6242278,2.24028217 C82.942593,2.58238495 83.0881202,3.05069495 83.01972,3.512985 L83.01972,6.573735 L82.0866165,6.573735 L82.0866165,3.747303 C82.0866165,2.9874915 81.756444,2.609628 81.0663525,2.609628 C80.7502666,2.59490607 80.4435137,2.7189567 80.2265148,2.94925762 C80.009516,3.17955855 79.9039133,3.49314106 79.9373925,3.8077935 L79.9373925,6.5737875 L79.004289,6.5737875 L79.004289,1.845711 Z" id="Path"></path>
                                <path d="M88.2922845,0.6685665 L88.2922845,1.8672465 L89.316654,1.8672465 L89.316654,2.6532135 L88.2922845,2.6532135 L88.2922845,5.084415 C88.2922845,5.579679 88.4963415,5.796546 88.9608405,5.796546 C89.0797588,5.79616542 89.1985578,5.78897514 89.316654,5.7750105 L89.316654,6.552252 C89.149084,6.58223025 88.9793054,6.59817904 88.809084,6.5999325 C87.77139,6.5999325 87.358152,6.2348895 87.358152,5.3233215 L87.358152,2.6531715 L86.60757,2.6531715 L86.60757,1.8672045 L87.358152,1.8672045 L87.358152,0.6685665 L88.2922845,0.6685665 Z" id="Path"></path>
                                <path d="M90.591207,0 L91.51611,0 L91.51611,2.6055225 L91.5899355,2.6055225 C91.8440647,2.04767699 92.4205906,1.70896692 93.0315855,1.7585505 C93.4949469,1.73333715 93.9454197,1.9160439 94.2603052,2.25690555 C94.5751907,2.59776719 94.7216917,3.06128092 94.6599045,3.521196 L94.6599045,6.5737875 L93.7258665,6.5737875 L93.7258665,3.7513875 C93.7258665,2.9961855 93.3741165,2.6137125 92.714832,2.6137125 C92.3902024,2.58708835 92.0703725,2.70510551 91.8408459,2.93621318 C91.6113193,3.16732085 91.4955005,3.48795333 91.5243525,3.8123925 L91.5243525,6.5737875 L90.591249,6.5737875 L90.591207,0 Z" id="Path"></path>
                                <path d="M100.100679,5.2971765 C99.8390264,6.18902496 98.9759703,6.76525819 98.0519505,6.665043 C97.4214926,6.68168571 96.8155875,6.42036223 96.3949962,5.95040792 C95.9744048,5.48045361 95.7816472,4.84937874 95.8678665,4.2246225 C95.7839373,3.59813 95.9759726,2.96604392 96.3942219,2.4921193 C96.8124711,2.01819469 97.4157786,1.74906559 98.047845,1.7544555 C99.3634215,1.7544555 100.157075,2.6532555 100.157075,4.1379555 L100.157075,4.46355 L96.8184,4.46355 L96.8184,4.51584 C96.7888551,4.86668715 96.9086798,5.21372014 97.1484053,5.47159273 C97.3881309,5.72946533 97.7255138,5.87425012 98.077581,5.87034 C98.5340914,5.92514442 98.9784731,5.6986997 99.2024355,5.297145 L100.100679,5.2971765 Z M96.818379,3.773448 L99.2065095,3.773448 C99.230295,3.45256846 99.1174679,3.13656533 98.8958323,2.90331205 C98.6741967,2.67005877 98.3643649,2.54124804 98.0426895,2.548623 C97.7166561,2.54452686 97.4027859,2.6722723 97.1722777,2.90288133 C96.9417695,3.13349035 96.8141613,3.44741642 96.8184,3.773448 L96.818379,3.773448 Z" id="Shape"></path>
                            </g>
                        </g>
                    </g>
                    <g id="Group" transform="translate(17.850000, 0.262500)"></g>
                </g>
            </g>
        </g>
    </g>
</svg>