<?xml version="1.0" encoding="UTF-8"?>
<svg width="122px" height="50px" viewBox="0 0 122 50" version="1.1" xmlns="http://www.w3.org/2000/svg" xmlns:xlink="http://www.w3.org/1999/xlink">
    <!-- Generator: sketchtool 61.2 (101010) - https://sketch.com -->
    <title>FC9CCC9A-E85F-4668-BDDA-4EF0E8C886E4</title>
    <desc>Created with sketchtool.</desc>
    <g id="Footer-Design-25.12" stroke="none" stroke-width="1" fill="none" fill-rule="evenodd">
        <g id="Assets" transform="translate(-153.000000, -29.000000)">
            <g id="Group" transform="translate(154.000000, 30.000000)">
                <g id="fb_partner" transform="translate(9.000000, 9.333333)" fill="#000000" fill-rule="nonzero">
                    <path d="M42.7972436,12.5983513 L41.6465544,12.5983513 L38.2343032,3.56465739 L38.0511484,12.6666667 L37,12.6666667 L37.3464012,2.26666667 L38.7638592,2.26666667 L42.243798,11.4490469 L45.6719756,2.26666667 L47.0735068,2.26666667 L47.4,12.6666667 L46.3289432,12.6666667 L46.1656968,3.58073159 L42.7972436,12.5983513 Z M51.4135764,12.6666667 C50.013702,12.6666667 49,11.7760027 49,10.5698119 C49,9.19587287 50.0820868,8.07355635 53.630044,7.87385587 L53.630044,7.42652687 C53.630044,6.22832419 53.0950344,5.62522883 51.8319296,5.62522883 C50.9222604,5.67830255 50.0481968,5.99489251 49.3177876,6.53586287 L49.0844752,5.57330671 C49.9192908,5.01571871 50.8948028,4.70162471 51.9003144,4.66666667 C53.6662476,4.66666667 54.6477688,5.46546847 54.631678,7.37859879 L54.631678,11.0131469 C54.631678,11.5603262 54.732244,11.8119487 55.4,11.7760027 L55.3517284,12.6187385 C54.3541168,12.6866367 53.8030168,12.2872358 53.6863608,11.5443501 L53.6380892,11.5443501 C53.0989708,12.2251505 52.2852588,12.6356865 51.4135764,12.6666667 Z M50.0820868,10.4539857 C50.0820868,11.2527875 50.7498428,11.7760027 51.6468888,11.7760027 C52.4197572,11.7409739 53.1410084,11.3807352 53.630044,10.7854884 L53.630044,8.56881343 C51.0153364,8.86437011 50.0820868,9.44350143 50.0820868,10.4539857 Z M57,12.6666667 L57,4.88775163 L57.985876,4.66666667 L57.985876,6.33299215 C58.461552,5.32992155 59.1789016,4.67076083 60.1302528,4.67076083 C60.5749224,4.67291551 61.0118072,4.79547139 61.4,5.02695327 L61.1468176,6.00955307 C60.8119384,5.79020187 60.4272588,5.67269715 60.0343504,5.66973731 C59.2671316,5.66973731 58.5574544,6.27976799 57.985876,7.67178439 L57.985876,12.6666667 L57,12.6666667 Z M63.995986,12.2666667 L63,12.2666667 L63,1.28696875 L63.995986,1.06666667 L63.995986,8.24221987 L64.0269896,8.24221987 L67.3327336,4.80786795 L68.5844984,4.80786795 L65.0539792,8.34843695 L68.6,12.2587987 L67.3327336,12.2587987 L64.0269896,8.54120127 L63.995986,8.54120127 L63.995986,12.2666667 Z M73.12459,11.7079235 C73.911998,11.7080893 74.6831912,11.4864471 75.3480452,11.0688985 L75.5498108,12.0114604 C74.8065024,12.447941 73.9565572,12.6744777 73.0923076,12.6664611 C70.8890292,12.6664611 69.4,11.0329533 69.4,8.73246331 C69.4,6.33611951 70.9374528,4.66666667 73.0075664,4.66666667 C74.6943252,4.66666667 75.8,5.75700311 75.8,7.46240111 C75.796898,7.86742403 75.7399136,8.27027863 75.6305172,8.66057299 L70.4532156,8.69252427 L70.4532156,8.77639627 C70.485498,10.4857882 71.5225724,11.7079235 73.12459,11.7079235 Z M74.7790668,7.54227923 C74.7790668,6.38404639 74.1455232,5.59325295 72.9430012,5.59325295 C71.5709964,5.59325295 70.6872636,6.63166859 70.521816,7.88974907 L74.7669608,7.88974907 C74.7798308,7.77439275 74.7838776,7.65823899 74.7790668,7.54227923 Z M79.713732,12.6666667 C78.2579612,12.6666667 77.606908,11.8656654 77.655434,10.2636629 L77.7727044,5.77004591 L76.6,5.70196079 L76.6525696,5.05715479 L77.8050548,4.78881935 L77.8576244,3.06666667 L78.8443132,3.06666667 L78.7957876,4.84088443 L81.3312552,4.84088443 L81.2827296,5.75402587 L78.7351304,5.75402587 L78.61786,10.2957029 C78.5855096,11.2569045 78.9373208,11.7214852 79.7420388,11.7214852 C80.2524312,11.6992019 80.7530508,11.5752479 81.2139848,11.3570296 L81.4,12.250146 C80.8733636,12.5038633 80.2989884,12.6457383 79.713732,12.6666667 Z M83.6,3.32375852 C83.4315472,3.32457827 83.2706208,3.24247087 83.1568512,3.09764447 C83.043082,2.95281807 82.9870424,2.75873163 83.002534,2.56318271 C83.002534,2.31434151 83.1164104,2.08440275 83.3012672,1.95998215 C83.4861236,1.83556151 83.7138764,1.83556151 83.8987328,1.95998215 C84.0835896,2.08440275 84.197466,2.31434151 84.197466,2.56318271 C84.2129576,2.75873163 84.156918,2.95281807 84.0431488,3.09764447 C83.9293792,3.24247087 83.7684528,3.32457827 83.6,3.32375852 Z M83.1604848,5.06503591 L84.05325,4.86088471 L84.05325,12.6666667 L83.1604848,12.6666667 L83.1604848,5.06503591 Z M91.5873756,7.64265031 C91.5873756,6.28955887 91.0611296,5.68046331 89.9209304,5.68046331 C89.0462996,5.73158155 88.2242356,6.12524023 87.6245848,6.78010559 L87.6245848,12.654403 L86.6,12.654403 L86.6,4.88741271 L87.620598,4.66666667 L87.620598,5.93391247 C88.2964008,5.20800115 89.2117788,4.76638823 90.18804,4.69528191 C91.7069768,4.69528191 92.6,5.66002383 92.6,7.35241015 L92.6,12.6666667 L91.5754152,12.6666667 L91.5873756,7.64265031 Z M101.275212,13.8422645 C101.275212,15.5288361 99.3913136,16.6666667 97.249788,16.6666667 C95.2008476,16.6666667 93.8,15.7668928 93.8,14.4313541 C93.8520328,13.4966209 94.5328248,12.7176999 95.4504236,12.5430394 C94.8023304,12.3090175 94.41589,11.8732526 94.41589,11.3325813 C94.41589,10.6950734 94.9673728,10.1463324 95.6677968,9.87599679 C94.872612,9.37117915 94.4026844,8.48282083 94.4319916,7.53981267 C94.4319916,5.92586855 95.6396188,4.66699215 97.4349576,4.66699215 C98.063708,4.65855467 98.6838232,4.81429455 99.234322,5.11889651 L101.351695,4.94943235 L101.4,5.98639147 L99.7415256,5.82096219 C100.142218,6.30499043 100.360244,6.91489307 100.357415,7.54384755 C100.357415,9.15779167 99.0894068,10.3480754 97.390678,10.3480754 C97.0039612,10.3445956 96.620946,10.2721849 96.259534,10.1342278 C95.8569916,10.2996571 95.406144,10.6184111 95.406144,11.0501411 C95.406144,11.4818712 95.7764832,11.8369389 97.1411016,11.8369389 L98.1233052,11.8369389 C100.325212,11.8369389 101.275212,12.5874229 101.275212,13.8422645 Z M100.272881,14.0238332 C100.272881,13.1200245 99.4677968,12.8133751 97.9582628,12.8133751 C97.4430084,12.8133751 96.79089,12.8133751 96.3480932,12.7609219 C95.4302968,13.0151181 94.7983052,13.6163123 94.7983052,14.2659248 C94.7983052,15.1697335 95.7805084,15.8354854 97.3947032,15.8354854 C99.0088984,15.8354854 100.272881,15.0607923 100.272881,14.0238332 Z M97.4269068,9.52496395 C98.5902544,9.52496395 99.3228812,8.68974787 99.3228812,7.50753379 C99.3228812,6.32531971 98.6586864,5.51834767 97.3745764,5.51834767 C96.1911016,5.51834767 95.4584744,6.36970319 95.4584744,7.55595211 C95.4276036,8.08776315 95.6252016,8.60740411 96.001388,8.98370155 C96.3775748,9.35999899 96.896404,9.55699583 97.4269068,9.52496395 Z M39.5213944,23.4001032 L38.0829328,23.4001032 L38.0829328,27.0666667 L37,27.0666667 L37,16.6666667 L39.672596,16.6666667 C42.463702,16.6666667 43.8,17.9988648 43.8,19.9186791 C43.783654,22.2007224 42.144952,23.3638803 39.5213944,23.4001032 Z M39.6235576,17.6607843 L38.0829328,17.6607843 L38.0829328,22.4341589 L39.5867788,22.397936 C41.585096,22.3657379 42.6680288,21.5929825 42.6680288,19.9830753 C42.6680288,18.4657379 41.6014424,17.6607843 39.6235576,17.6607843 Z M47.409034,27.4666667 C46.0158092,27.4666667 45,26.5760027 45,25.3698119 C45,23.9958729 46.08005,22.8735563 49.62133,22.6738559 L49.62133,22.2265269 C49.62133,21.0283242 49.0913424,20.4252288 47.8265996,20.4252288 C46.9241984,20.4813686 46.0577828,20.7978053 45.3332496,21.3358629 L45.1003764,20.3773007 C45.932714,19.8173251 46.9067104,19.5017436 47.910916,19.4666667 C49.6735256,19.4666667 50.6531996,20.2654685 50.6371392,22.1785988 L50.6371392,25.8131469 C50.6371392,26.3603262 50.7375156,26.6119487 51.4,26.5760027 L51.3357592,27.4187385 C50.33601,27.4866367 49.7899624,27.0872358 49.6735256,26.3443501 L49.62133,26.3443501 C49.08502,27.0230656 48.2762308,27.4333713 47.409034,27.4666667 Z M46.08005,25.2539857 C46.08005,26.0527875 46.7465496,26.5760027 47.6419072,26.5760027 C48.4133212,26.5409739 49.1332148,26.1807352 49.62133,25.5854884 L49.62133,23.3688134 C47.0115432,23.6643701 46.08005,24.2435014 46.08005,25.2539857 Z M53,27.4666667 L53,19.6877516 L53.985876,19.4666667 L53.985876,21.1575571 C54.461552,20.1544865 55.1750652,19.4953258 56.1264168,19.4953258 C56.5723652,19.4969666 57.010608,19.6195333 57.4,19.8515183 L57.1429816,20.8341181 C56.8095332,20.6147142 56.4260664,20.4971746 56.0343504,20.4943023 C55.2671316,20.4943023 54.5574544,21.104333 53.985876,22.4963494 L53.985876,27.4666667 L53,27.4666667 Z M60.9006712,27.4666667 C59.4510068,27.4666667 58.8026844,26.6656654 58.8510068,25.0636629 L58.9677852,20.5700459 L57.8,20.5019608 L57.8523488,19.8571548 L59,19.5888193 L59.0523488,17.8666667 L60.0348992,17.8666667 L59.9825504,19.6408844 L62.5355704,19.6408844 L62.4832216,20.5540259 L59.9503356,20.5540259 L59.8335572,25.0957029 C59.8013424,26.0569045 60.151678,26.5214852 60.95302,26.5214852 C61.4612716,26.4992019 61.9597912,26.3752479 62.418792,26.1570296 L62.6,27.050146 C62.0697508,27.3075047 61.4904372,27.4494996 60.9006712,27.4666667 Z M69.594012,22.4472194 C69.594012,21.0920505 69.063074,20.4820198 67.9253492,20.4820198 C67.0516288,20.5280705 66.2285092,20.9164529 65.625948,21.5669737 L65.625948,27.4666667 L64.6,27.4666667 L64.6,19.6877516 L65.625948,19.4666667 L65.625948,20.7481405 C66.2997216,20.0080477 67.2203004,19.5549799 68.2047904,19.4789491 C69.7257484,19.4789491 70.6,20.4451723 70.6,22.1401569 L70.6,27.4625725 L69.578044,27.4625725 L69.594012,22.4472194 Z M75.9067508,26.4957003 C76.6978332,26.5067547 77.4755448,26.2933134 78.1477604,25.8806599 L78.3496528,26.8231894 C77.604894,27.2560335 76.7543272,27.478441 75.8905992,27.4661863 C73.6859304,27.4661863 72.2,25.8327347 72.2,23.5323237 C72.2,21.1360621 73.7343848,19.4666667 75.8098424,19.4666667 C77.4976656,19.4666667 78.6,20.5569656 78.6,22.2623051 C78.5981648,22.6671338 78.5425032,23.0699653 78.434448,23.4604358 L73.2296528,23.4843984 L73.2296528,23.5682676 C73.2659936,25.273607 74.2996844,26.4957003 75.9067508,26.4957003 Z M77.5622712,22.3301991 C77.5622712,21.1720061 76.9242904,20.3812398 75.7210096,20.3812398 C74.3521768,20.3812398 73.4638484,21.4196198 73.2982964,22.6776571 L77.542082,22.6776571 C77.5598412,22.5627231 77.5666008,22.4463887 77.5622712,22.3301991 Z M80.6,27.4666667 L80.6,19.6877516 L81.585876,19.4666667 L81.585876,21.1575571 C82.061552,20.1544865 82.7750652,19.4953258 83.7302528,19.4953258 C84.1749224,19.4974805 84.6118072,19.6200364 85,19.8515183 L84.7468176,20.8341181 C84.4119384,20.6147669 84.0272588,20.4972621 83.6343504,20.4943023 C82.8671316,20.4943023 82.1574544,21.104333 81.585876,22.4963494 L81.585876,27.4666667 L80.6,27.4666667 Z M26.6552822,0.666661578 C27.5084063,0.666661578 28.2,1.35836371 28.2,2.21160895 L28.2,27.1217295 C28.2,27.9749747 27.5084063,28.6666616 26.6552822,28.6666616 L19.5209157,28.6666616 L19.5209157,17.8242341 L23.1597611,17.8242341 L23.6892649,13.6075113 L19.5209157,13.6075113 L19.5209157,10.9078531 C19.5209157,9.68544147 19.8593204,8.85324595 21.6150434,8.85324595 L23.8524954,8.85324595 L23.8524954,5.07452083 C22.7694947,4.95918403 21.680983,4.90335499 20.5918669,4.90728535 C17.3670695,4.90728535 15.1574861,6.86632939 15.1574861,10.4818008 L15.1574861,13.5995477 L11.5106782,13.5995477 L11.5106782,17.8242341 L15.1574861,17.8242341 L15.1574861,28.6666616 L1.748699,28.6666616 C0.89492852,28.6666616 0.2021948,27.9756184 0.2,27.1217295 L0.2,2.21160895 C0.20105452,1.80080967 0.36523276,1.40725483 0.65641708,1.11752259 C0.9476014,0.827790387 1.34193928,0.665614427 1.75268024,0.666661578 L26.6552822,0.666661578 Z" id="Combined-Shape"></path>
                </g>
                <rect id="Rectangle" stroke="#000000" stroke-width="1.33333333" x="0" y="0" width="120" height="48" rx="2.66666667"></rect>
            </g>
        </g>
    </g>
</svg>