<?xml version="1.0" encoding="UTF-8"?>
<svg width="142px" height="42px" viewBox="0 0 142 42" version="1.1" xmlns="http://www.w3.org/2000/svg" xmlns:xlink="http://www.w3.org/1999/xlink">
    <!-- Generator: sketchtool 61.2 (101010) - https://sketch.com -->
    <title>C9A0BFA2-2DB3-4EF3-B9BE-F823BEBEC79C</title>
    <desc>Created with sketchtool.</desc>
    <defs>
        <linearGradient x1="61.0265807%" y1="4.96288907%" x2="26.4999303%" y2="71.9317638%" id="linearGradient-1">
            <stop stop-color="#00A0FF" offset="0%"></stop>
            <stop stop-color="#00A1FF" offset="0.657445%"></stop>
            <stop stop-color="#00BEFF" offset="26.01%"></stop>
            <stop stop-color="#00D2FF" offset="51.22%"></stop>
            <stop stop-color="#00DFFF" offset="76.04%"></stop>
            <stop stop-color="#00E3FF" offset="100%"></stop>
        </linearGradient>
        <linearGradient x1="107.621063%" y1="50.0630841%" x2="-130.537402%" y2="50.0630841%" id="linearGradient-2">
            <stop stop-color="#FFE000" offset="0%"></stop>
            <stop stop-color="#FFBD00" offset="40.87%"></stop>
            <stop stop-color="#FFA500" offset="77.54%"></stop>
            <stop stop-color="#FF9C00" offset="100%"></stop>
        </linearGradient>
        <linearGradient x1="86.2523981%" y1="30.8770741%" x2="-50.1882494%" y2="136.143112%" id="linearGradient-3">
            <stop stop-color="#FF3A44" offset="0%"></stop>
            <stop stop-color="#C31162" offset="100%"></stop>
        </linearGradient>
        <linearGradient x1="-18.7699221%" y1="-11.8133983%" x2="42.1198322%" y2="35.0993451%" id="linearGradient-4">
            <stop stop-color="#32A071" offset="0%"></stop>
            <stop stop-color="#2DA771" offset="6.85%"></stop>
            <stop stop-color="#15CF74" offset="47.62%"></stop>
            <stop stop-color="#06E775" offset="80.09%"></stop>
            <stop stop-color="#00F076" offset="100%"></stop>
        </linearGradient>
    </defs>
    <g id="Footer-Design-25.12" stroke="none" stroke-width="1" fill="none" fill-rule="evenodd">
        <g id="Assets" transform="translate(-295.000000, -160.000000)" fill-rule="nonzero">
            <g id="google-play-badge" transform="translate(295.000000, 160.000000)">
                <path d="M136.5,42 L5.25,42 C2.3625,42 0,39.6375 0,36.75 L0,5.25 C0,2.3625 2.3625,0 5.25,0 L136.5,0 C139.3875,0 141.75,2.3625 141.75,5.25 L141.75,36.75 C141.75,39.6375 139.3875,42 136.5,42 Z" id="Path" fill="#000000"></path>
                <path d="M136.5,0.84 C138.936,0.84 140.91,2.814 140.91,5.25 L140.91,36.75 C140.91,39.186 138.936,41.16 136.5,41.16 L5.25,41.16 C2.814,41.16 0.84,39.186 0.84,36.75 L0.84,5.25 C0.84,2.814 2.814,0.84 5.25,0.84 L136.5,0.84 M136.5,0 L5.25,0 C2.3625,0 0,2.3625 0,5.25 L0,36.75 C0,39.6375 2.3625,42 5.25,42 L136.5,42 C139.3875,42 141.75,39.6375 141.75,36.75 L141.75,5.25 C141.75,2.3625 139.3875,0 136.5,0 L136.5,0 Z" id="Shape" fill="#A6A6A6"></path>
                <g id="Group" transform="translate(43.050000, 6.300000)" fill="#FFFFFF" stroke="#FFFFFF" stroke-width="0.65625">
                    <path d="M6.741,4.4625 C6.741,5.3445 6.4785,6.048 5.9535,6.5625 C5.3655,7.182 4.5885,7.497 3.6435,7.497 C2.73,7.497 1.9635,7.182 1.323,6.552 C0.6825,5.922 0.3675,5.1345 0.3675,4.2105 C0.3675,3.276 0.6825,2.499 1.323,1.869 C1.9635,1.239 2.73,0.924 3.6435,0.924 C4.095,0.924 4.5255,1.008 4.935,1.1865 C5.3445,1.365 5.67,1.596 5.922,1.89 L5.3655,2.4465 C4.9455,1.953 4.3785,1.701 3.6435,1.701 C2.982,1.701 2.4045,1.932 1.9215,2.4045 C1.4385,2.8665 1.197,3.4755 1.197,4.221 C1.197,4.9665 1.4385,5.5755 1.9215,6.0375 C2.4045,6.4995 2.982,6.741 3.6435,6.741 C4.347,6.741 4.935,6.51 5.4075,6.0375 C5.712,5.733 5.8905,5.3025 5.9325,4.7565 L3.6435,4.7565 L3.6435,3.9795 L6.699,3.9795 C6.72,4.1475 6.741,4.305 6.741,4.4625 Z" id="Path"></path>
                    <polygon id="Path" points="11.5815 1.827 8.715 1.827 8.715 3.822 11.298 3.822 11.298 4.578 8.715 4.578 8.715 6.573 11.5815 6.573 11.5815 7.35 7.9065 7.35 7.9065 1.05 11.5815 1.05 11.5815 1.827"></polygon>
                    <polygon id="Path" points="14.994 7.35 14.1855 7.35 14.1855 1.827 12.4215 1.827 12.4215 1.05 16.7475 1.05 16.7475 1.827 14.9835 1.827 14.9835 7.35"></polygon>
                    <polygon id="Path" points="19.887 7.35 19.887 1.05 20.6955 1.05 20.6955 7.35"></polygon>
                    <polygon id="Path" points="24.2865 7.35 23.478 7.35 23.478 1.827 21.714 1.827 21.714 1.05 26.04 1.05 26.04 1.827 24.276 1.827 24.276 7.35"></polygon>
                    <path d="M34.2405,6.5415 C33.621,7.182 32.8545,7.497 31.9305,7.497 C31.0065,7.497 30.24,7.182 29.6205,6.5415 C29.001,5.901 28.6965,5.124 28.6965,4.2105 C28.6965,3.297 29.001,2.5095 29.6205,1.8795 C30.24,1.239 31.0065,0.924 31.9305,0.924 C32.844,0.924 33.6105,1.239 34.2405,1.8795 C34.86,2.52 35.175,3.297 35.175,4.2105 C35.1645,5.124 34.86,5.901 34.2405,6.5415 Z M30.219,6.0165 C30.681,6.489 31.2585,6.72 31.9305,6.72 C32.6025,6.72 33.18,6.489 33.642,6.0165 C34.104,5.544 34.3455,4.9455 34.3455,4.2105 C34.3455,3.4755 34.1145,2.877 33.642,2.4045 C33.18,1.932 32.6025,1.701 31.9305,1.701 C31.2585,1.701 30.681,1.932 30.219,2.4045 C29.757,2.877 29.5155,3.4755 29.5155,4.2105 C29.5155,4.9455 29.757,5.544 30.219,6.0165 Z" id="Shape"></path>
                    <polygon id="Path" points="36.309 7.35 36.309 1.05 37.296 1.05 40.362 5.9535 40.3935 5.9535 40.362 4.7355 40.362 1.05 41.1705 1.05 41.1705 7.35 40.3305 7.35 37.128 2.2155 37.0965 2.2155 37.128 3.4335 37.128 7.35"></polygon>
                </g>
                <path d="M71.547,22.848 C69.0795,22.848 67.0635,24.7275 67.0635,27.3105 C67.0635,29.883 69.0795,31.773 71.547,31.773 C74.0145,31.773 76.0305,29.883 76.0305,27.3105 C76.0305,24.717 74.0145,22.848 71.547,22.848 Z M71.547,30.0195 C70.1925,30.0195 69.027,28.9065 69.027,27.3105 C69.027,25.704 70.1925,24.6015 71.547,24.6015 C72.9015,24.6015 74.067,25.704 74.067,27.3105 C74.067,28.896 72.891,30.0195 71.547,30.0195 Z M61.761,22.848 C59.2935,22.848 57.2775,24.7275 57.2775,27.3105 C57.2775,29.883 59.2935,31.773 61.761,31.773 C64.2285,31.773 66.2445,29.883 66.2445,27.3105 C66.2445,24.717 64.2285,22.848 61.761,22.848 Z M61.761,30.0195 C60.4065,30.0195 59.241,28.9065 59.241,27.3105 C59.241,25.704 60.4065,24.6015 61.761,24.6015 C63.1155,24.6015 64.281,25.704 64.281,27.3105 C64.281,28.896 63.1155,30.0195 61.761,30.0195 Z M50.127,24.213 L50.127,26.103 L54.663,26.103 C54.5265,27.1635 54.1695,27.951 53.634,28.4865 C52.9725,29.148 51.9435,29.8725 50.1375,29.8725 C47.3445,29.8725 45.1605,27.6255 45.1605,24.8325 C45.1605,22.0395 47.3445,19.7925 50.1375,19.7925 C51.639,19.7925 52.7415,20.3805 53.55,21.147 L54.8835,19.8135 C53.7495,18.732 52.248,17.9025 50.127,17.9025 C46.305,17.9025 43.092,21.0105 43.092,24.843 C43.092,28.665 46.305,31.7835 50.127,31.7835 C52.1955,31.7835 53.7495,31.1115 54.9675,29.841 C56.217,28.5915 56.6055,26.8275 56.6055,25.41 C56.6055,24.969 56.574,24.5595 56.5005,24.2235 L50.127,24.2235 L50.127,24.213 Z M97.7025,25.683 C97.335,24.6855 96.201,22.8375 93.8805,22.8375 C91.581,22.8375 89.67,24.6435 89.67,27.3 C89.67,29.799 91.56,31.7625 94.101,31.7625 C96.1485,31.7625 97.335,30.513 97.818,29.7885 L96.2955,28.77 C95.7915,29.5155 95.0985,30.009 94.101,30.009 C93.1035,30.009 92.3895,29.5575 91.938,28.6545 L97.9125,26.187 L97.7025,25.683 Z M91.6125,27.174 C91.56,25.452 92.946,24.57 93.9435,24.57 C94.7205,24.57 95.382,24.9585 95.6025,25.515 L91.6125,27.174 Z M86.7615,31.5 L88.725,31.5 L88.725,18.375 L86.7615,18.375 L86.7615,31.5 Z M83.5485,23.8455 L83.475,23.8455 C83.034,23.3205 82.194,22.848 81.123,22.848 C78.8865,22.848 76.839,24.8115 76.839,27.3315 C76.839,29.8305 78.8865,31.7835 81.123,31.7835 C82.194,31.7835 83.034,31.311 83.475,30.765 L83.538,30.765 L83.538,31.4055 C83.538,33.117 82.6245,34.0305 81.1545,34.0305 C79.9575,34.0305 79.212,33.1695 78.9075,32.445 L77.196,33.159 C77.6895,34.3455 78.9915,35.7945 81.1545,35.7945 C83.454,35.7945 85.3965,34.44 85.3965,31.143 L85.3965,23.121 L83.538,23.121 L83.538,23.8455 L83.5485,23.8455 Z M81.291,30.0195 C79.9365,30.0195 78.8025,28.8855 78.8025,27.3315 C78.8025,25.7565 79.9365,24.612 81.291,24.612 C82.6245,24.612 83.6745,25.767 83.6745,27.3315 C83.685,28.8855 82.635,30.0195 81.291,30.0195 Z M106.9005,18.375 L102.207,18.375 L102.207,31.5 L104.1705,31.5 L104.1705,26.523 L106.911,26.523 C109.0845,26.523 111.216,24.948 111.216,22.449 C111.216,19.95 109.0635,18.375 106.9005,18.375 Z M106.9425,24.7065 L104.16,24.7065 L104.16,20.202 L106.9425,20.202 C108.4125,20.202 109.242,21.42 109.242,22.449 C109.242,23.4675 108.4125,24.7065 106.9425,24.7065 Z M119.0595,22.8165 C117.642,22.8165 116.172,23.4465 115.563,24.822 L117.306,25.5465 C117.6735,24.822 118.3665,24.5805 119.091,24.5805 C120.1095,24.5805 121.1385,25.1895 121.149,26.271 L121.149,26.4075 C120.792,26.208 120.036,25.9035 119.1015,25.9035 C117.222,25.9035 115.3215,26.9325 115.3215,28.854 C115.3215,30.6075 116.8545,31.7415 118.5765,31.7415 C119.889,31.7415 120.624,31.1535 121.0755,30.4605 L121.1385,30.4605 L121.1385,31.479 L123.028547,31.479 L123.028547,26.4495 C123.039,24.1185 121.296,22.8165 119.0595,22.8165 Z M118.818,30.009 C118.1775,30.009 117.285,29.6835 117.285,28.896 C117.285,27.888 118.398,27.4995 119.364,27.4995 C120.225,27.4995 120.6345,27.6885 121.149,27.9405 C121.002,29.148 119.952,30.009 118.818,30.009 Z M129.927,23.1105 L127.68,28.8015 L127.617,28.8015 L125.286,23.1105 L123.1755,23.1105 L126.672,31.0695 L124.677,35.49 L126.7245,35.49 L132.111,23.1105 L129.927,23.1105 L129.927,23.1105 Z M112.287,31.5 L114.2505,31.5 L114.2505,18.375 L112.287,18.375 L112.287,31.5 Z" id="Shape" fill="#FFFFFF"></path>
                <g id="Group" transform="translate(9.450000, 7.350000)">
                    <path d="M1.512,0.567 C1.2075,0.8925 1.029,1.3965 1.029,2.037 L1.029,25.263 C1.029,25.914 1.2075,26.418 1.512,26.733 L1.5855,26.8065 L14.595,13.8075 L14.595,13.65 L14.595,13.4925 L1.5855,0.4935 L1.512,0.567 Z" id="Path" fill="url(#linearGradient-1)"></path>
                    <path d="M18.9315,18.144 L14.595,13.8075 L14.595,13.65 L14.595,13.4925 L18.9315,9.156 L19.026,9.2085 L24.1605,12.1275 C25.6305,12.957 25.6305,14.322 24.1605,15.162 L19.026,18.081 L18.9315,18.144 Z" id="Path" fill="url(#linearGradient-2)"></path>
                    <path d="M19.026,18.0915 L14.595,13.65 L1.512,26.7435 C1.995,27.258 2.793,27.321 3.696,26.8065 L19.026,18.0915" id="Path" fill="url(#linearGradient-3)"></path>
                    <path d="M19.026,9.219 L3.6855,0.504 C2.7825,-0.0105 1.9845,0.0525 1.5015,0.567 L14.595,13.65 L19.026,9.219 Z" id="Path" fill="url(#linearGradient-4)"></path>
                    <g transform="translate(0.000000, 17.850000)" fill="#000000" id="Path">
                        <path d="M18.9315,0.147 L3.6855,8.8095 C2.835,9.2925 2.0685,9.261 1.5855,8.82 L1.5855,8.82 L1.512,8.8935 L1.512,8.8935 L1.5855,8.967 L1.5855,8.967 C2.079,9.408 2.835,9.4395 3.6855,8.9565 L19.026,0.2415 L18.9315,0.147 Z" opacity="0.2"></path>
                        <path d="M1.512,8.736 C1.2075,8.4105 1.029,7.9065 1.029,7.266 L1.029,7.4235 C1.029,8.0745 1.2075,8.5785 1.512,8.8935 L1.5855,8.82 L1.512,8.736 Z" opacity="0.12"></path>
                    </g>
                    <path d="M24.1605,15.015 L18.921,17.9865 L19.0155,18.081 L24.15,15.162 C24.885,14.742 25.2525,14.196 25.2525,13.65 L25.2525,13.65 C25.2,14.154 24.8325,14.637 24.1605,15.015 Z" id="Path" fill="#000000" opacity="0.12"></path>
                    <path d="M3.6855,0.6615 L24.1605,12.2955 C24.822,12.6735 25.2,13.1565 25.263,13.6605 L25.263,13.6605 C25.263,13.1145 24.8955,12.558 24.1605,12.1485 L3.6855,0.504 C2.2155,-0.3255 1.0185,0.3675 1.0185,2.0475 L1.0185,2.205 C1.0185,0.5145 2.226,-0.1785 3.6855,0.6615 Z" id="Path" fill="#FFFFFF" opacity="0.25"></path>
                </g>
            </g>
        </g>
    </g>
</svg>