<?xml version="1.0" encoding="UTF-8"?>
<svg width="32px" height="32px" viewBox="0 0 32 32" version="1.1" xmlns="http://www.w3.org/2000/svg" xmlns:xlink="http://www.w3.org/1999/xlink">
    <!-- Generator: sketchtool 61.2 (101010) - https://sketch.com -->
    <title>FDF4F3C4-4B10-4E28-9475-038AD4D7C12D</title>
    <desc>Created with sketchtool.</desc>
    <g id="Footer-Design-25.12" stroke="none" stroke-width="1" fill="none" fill-rule="evenodd">
        <g id="Assets" transform="translate(-249.000000, -308.000000)" fill="#000000">
            <g id="icn_youtube" transform="translate(249.000000, 308.000000)">
                <path d="M16,0 C24.836556,0 32,7.163444 32,16 C32,24.836556 24.836556,32 16,32 C7.163444,32 0,24.836556 0,16 C0,7.163444 7.163444,0 16,0 Z M16.2275463,11.0006944 L15.7724537,11.0006944 C15.0444444,11.0041667 12.725,11.025 11.1,11.15 C10.8,11.2 10.25,11.2 9.7,11.75 C9.3,12.2 9.15,13.15 9.15,13.15 C9.15,13.15 9,14.3 9,15.45 L9,16.55 C9,17.7 9.15,18.85 9.15,18.85 C9.15,18.85 9.3,19.85 9.7,20.25 C10.25,20.8 10.95,20.8 11.25,20.85 C12.35,20.95 16,21 16,21 C16,21 18.95,21 20.9,20.85 C21.15,20.8 21.75,20.8 22.3,20.25 C22.7,19.8 22.85,18.85 22.85,18.85 C22.85,18.85 23,17.7 23,16.55 L23,15.45 C23,14.3 22.85,13.15 22.85,13.15 C22.85,13.15 22.7,12.15 22.3,11.75 C21.75,11.2 21.15,11.2 20.9,11.15 C19.275,11.025 16.9555556,11.0041667 16.2275463,11.0006944 Z M14.55,13.85 L18.35,15.85 L14.55,17.85 L14.55,13.85 Z" id="Combined-Shape"></path>
            </g>
        </g>
    </g>
</svg>