<?xml version="1.0" encoding="UTF-8"?>
<svg width="32px" height="32px" viewBox="0 0 32 32" version="1.1" xmlns="http://www.w3.org/2000/svg" xmlns:xlink="http://www.w3.org/1999/xlink">
    <!-- Generator: sketchtool 61.2 (101010) - https://sketch.com -->
    <title>10969483-CE1F-4CC8-A6B7-01DE9DED223F</title>
    <desc>Created with sketchtool.</desc>
    <g id="Footer-Design-25.12" stroke="none" stroke-width="1" fill="none" fill-rule="evenodd">
        <g id="Assets" transform="translate(-393.000000, -308.000000)" fill="#000000">
            <path d="M409,308 C417.836556,308 425,315.163444 425,324 C425,332.836556 417.836556,340 409,340 C400.163444,340 393,332.836556 393,324 C393,315.163444 400.163444,308 409,308 Z M409.375115,316 C408.731461,315.999642 408.100232,316.082919 407.481428,316.249833 C406.862624,316.416746 406.284421,316.666758 405.746817,316.999866 C405.209214,317.332975 404.734261,317.727107 404.321958,318.18226 C403.909656,318.637413 403.586254,319.170997 403.351752,319.783013 C403.117251,320.395029 403,321.047248 403,321.73967 L403,321.73967 C403.00105,322.074214 403.03535,322.415579 403.103951,322.764841 C403.172551,323.114103 403.274052,323.460314 403.408453,323.803473 C403.542853,324.146633 403.73343,324.44959 403.980181,324.712344 C404.226933,324.975098 404.509734,325.154575 404.828586,325.250774 C404.922387,325.270158 404.975587,325.27985 404.988187,325.27985 C405.125738,325.27985 405.241414,325.13555 405.335215,324.846952 C405.429015,324.558353 405.475915,324.324315 405.475915,324.144838 C405.475915,324.087047 405.43689,323.989232 405.35884,323.851394 C405.280789,323.713556 405.196439,323.567641 405.105788,323.41365 C405.015138,323.259659 404.930787,323.051286 404.852737,322.788532 C404.774686,322.525778 404.735661,322.253332 404.735661,321.971195 C404.735661,320.695832 405.154438,319.643021 405.991994,318.812762 C406.829549,317.982502 407.873255,317.567372 409.123113,317.567372 C410.22317,317.567013 411.115326,317.876252 411.79958,318.495088 C412.483834,319.113924 412.825961,319.977746 412.825961,321.086553 C412.825611,321.388075 412.805311,321.707005 412.765061,322.043344 C412.724811,322.379684 412.662335,322.735407 412.577635,323.110513 C412.492934,323.48562 412.374109,323.839728 412.221158,324.172837 C412.068207,324.505946 411.893206,324.810338 411.696154,325.086015 C411.499103,325.361691 411.253752,325.579576 410.9601,325.739669 C410.666448,325.899763 410.347771,325.979809 410.004069,325.979809 C409.604366,325.979809 409.263814,325.846817 408.982412,325.580832 C408.701011,325.314848 408.56031,324.979944 408.56031,324.576121 C408.56031,324.178759 408.697861,323.579486 408.972962,322.778302 C409.248064,321.977117 409.385615,321.364922 409.385615,320.941716 C409.385615,320.544354 409.279389,320.215911 409.066938,319.956388 C408.854487,319.696865 408.557685,319.567103 408.176532,319.567103 C407.676729,319.567103 407.264252,319.801141 406.9391,320.269216 C406.613948,320.737292 406.451372,321.237314 406.451372,321.769283 C406.451372,322.43586 406.551297,322.977521 406.751148,323.394266 C406.707398,323.586665 406.544822,324.237269 406.26342,325.346077 C405.982019,326.454884 405.774117,327.376318 405.639716,328.110379 C405.505316,328.844439 405.438115,329.506349 405.438115,330.09611 C405.438115,330.294611 405.485016,330.897115 405.578816,331.903621 L405.578816,331.903621 L405.663342,332 L405.794592,331.95208 C406.025594,331.631175 406.21932,331.353883 406.375771,331.120205 C406.532222,330.886526 406.675898,330.63813 406.806799,330.375017 C406.9377,330.111904 407.037625,329.911608 407.106576,329.774129 C407.175526,329.636649 407.256727,329.409073 407.350177,329.091399 C407.443628,328.773725 407.507678,328.546148 407.542328,328.408669 C407.576979,328.27119 407.650479,327.966797 407.76283,327.495491 C407.87518,327.024185 407.962681,326.663616 408.025331,326.413784 C408.206283,326.772738 408.506234,327.054696 408.925187,327.259658 C409.34414,327.464621 409.766067,327.567102 410.19097,327.567102 C410.834974,327.566743 411.425603,327.443263 411.962856,327.196662 C412.500109,326.950061 412.953187,326.620003 413.32209,326.206489 C413.690992,325.792974 414.003544,325.313771 414.259745,324.768879 C414.515947,324.223988 414.703373,323.656661 414.822024,323.066901 C414.940675,322.47714 415,321.874636 415,321.25939 C414.99965,320.2335 414.733998,319.313682 414.203045,318.499934 C413.672092,317.686186 412.981537,317.066093 412.131382,316.639657 C411.281227,316.21322 410.362471,316 409.375115,316 Z" id="Combined-Shape"></path>
        </g>
    </g>
</svg>