<?xml version="1.0" encoding="UTF-8"?>
<svg width="32px" height="32px" viewBox="0 0 32 32" version="1.1" xmlns="http://www.w3.org/2000/svg" xmlns:xlink="http://www.w3.org/1999/xlink">
    <!-- Generator: sketchtool 61.2 (101010) - https://sketch.com -->
    <title>46F18D31-6F51-4D1D-861D-31F46BC634A8</title>
    <desc>Created with sketchtool.</desc>
    <g id="Footer-Design-25.12" stroke="none" stroke-width="1" fill="none" fill-rule="evenodd">
        <g id="Assets" transform="translate(-297.000000, -308.000000)" fill="#000000">
            <g id="icn_twitter" transform="translate(297.000000, 308.000000)">
                <path d="M16,0 C24.836556,0 32,7.163444 32,16 C32,24.836556 24.836556,32 16,32 C7.163444,32 0,24.836556 0,16 C0,7.163444 7.163444,0 16,0 Z M19.2045,10.2855 C18.4071667,10.2858333 17.7271667,10.5671667 17.1645,11.1295 C16.6018333,11.6918333 16.3205,12.3718333 16.3205,13.1695 C16.3205,13.3835 16.3443333,13.6036667 16.392,13.83 C15.2133333,13.7703333 14.1076667,13.4741667 13.075,12.9415 C12.0423333,12.4088333 11.1658333,11.699 10.4455,10.812 C10.1835,11.2586667 10.0525,11.7438333 10.0525,12.2675 C10.0525,12.7615 10.1685,13.2198333 10.4005,13.6425 C10.6325,14.0651667 10.945,14.4075 11.338,14.6695 C10.8736667,14.6518333 10.4391667,14.5298333 10.0345,14.3035 L10.0345,14.3035 L10.0345,14.339 C10.0345,15.0356667 10.2533333,15.6473333 10.691,16.174 C11.1286667,16.7006667 11.6808333,17.0325 12.3475,17.1695 C12.0975,17.2348333 11.8445,17.2675 11.5885,17.2675 C11.4218333,17.2675 11.2403333,17.2526667 11.044,17.223 C11.2286667,17.8003333 11.568,18.275 12.062,18.647 C12.556,19.019 13.1155,19.211 13.7405,19.223 C12.6928333,20.0443333 11.4993333,20.455 10.16,20.455 C9.904,20.455 9.67183333,20.4431667 9.4635,20.4195 C10.8028333,21.2825 12.279,21.714 13.892,21.714 C14.916,21.7136667 15.8773333,21.5515 16.776,21.2275 C17.6746667,20.9035 18.4425,20.469 19.0795,19.924 C19.7165,19.379 20.2656667,18.7525 20.727,18.0445 C21.1883333,17.3365 21.5321667,16.597 21.7585,15.826 C21.9848333,15.055 22.098,14.2826667 22.098,13.509 C22.098,13.3423333 22.095,13.2173333 22.089,13.134 C22.6546667,12.7233333 23.1368333,12.2263333 23.5355,11.643 L23.5355,11.643 C22.9811667,11.8805 22.4276667,12.0293333 21.874,12.089 C22.499,11.714 22.9216667,11.1841667 23.142,10.4995 C22.5703333,10.8388333 21.9601667,11.071 21.3115,11.196 C20.7401667,10.589 20.0378333,10.2855 19.2045,10.2855 Z" id="Combined-Shape"></path>
            </g>
        </g>
    </g>
</svg>