<?xml version="1.0" encoding="UTF-8"?>
<svg width="32px" height="32px" viewBox="0 0 32 32" version="1.1" xmlns="http://www.w3.org/2000/svg" xmlns:xlink="http://www.w3.org/1999/xlink">
    <!-- Generator: sketchtool 61.2 (101010) - https://sketch.com -->
    <title>B04D9E13-60FE-4309-B201-2BEF121F5502</title>
    <desc>Created with sketchtool.</desc>
    <g id="Footer-Design-25.12" stroke="none" stroke-width="1" fill="none" fill-rule="evenodd">
        <g id="Assets" transform="translate(-153.000000, -308.000000)" fill="#000000">
            <g id="icn_facebook" transform="translate(153.000000, 308.000000)">
                <path d="M16,0 C24.836556,0 32,7.163444 32,16 C32,24.836556 24.836556,32 16,32 C7.163444,32 0,24.836556 0,16 C0,7.163444 7.163444,0 16,0 Z M17.833,9 C16.8035,9 15.9785,9.305 15.36,9.915 C14.7415,10.525 14.4315,11.384 14.4315,12.491 L14.4315,12.491 L14.4315,14.4375 L12.1545,14.4375 L12.1545,17.0805 L14.4315,17.0805 L14.4315,23.8575 L17.1635,23.8575 L17.1635,17.0805 L19.4315,17.0805 L19.7795,14.4375 L17.1635,14.4375 L17.1635,12.75 C17.1635,12.321 17.253,12 17.4315,11.7855 C17.61,11.571 17.9555,11.464 18.467,11.464 L18.467,11.464 L19.869,11.464 L19.869,9.107 C19.3865,9.0355 18.708,9 17.833,9 Z" id="Combined-Shape"></path>
            </g>
        </g>
    </g>
</svg>