<?xml version="1.0" encoding="UTF-8"?>
<svg width="32px" height="32px" viewBox="0 0 32 32" version="1.1" xmlns="http://www.w3.org/2000/svg" xmlns:xlink="http://www.w3.org/1999/xlink">
    <!-- Generator: sketchtool 61.2 (101010) - https://sketch.com -->
    <title>726B79B1-8C2A-4F70-A268-1986C25FB5D3</title>
    <desc>Created with sketchtool.</desc>
    <g id="Footer-Design-25.12" stroke="none" stroke-width="1" fill="none" fill-rule="evenodd">
        <g id="Assets" transform="translate(-345.000000, -308.000000)" fill="#000000">
            <path d="M361,308 C369.836556,308 377,315.163444 377,324 C377,332.836556 369.836556,340 361,340 C352.163444,340 345,332.836556 345,324 C345,315.163444 352.163444,308 361,308 Z M357.259,321.5805 L354.3125,321.5805 L354.3125,330.4285 L357.259,330.4285 L357.259,321.5805 Z M364.4735,321.3735 C364.0985,321.3735 363.757667,321.419667 363.451,321.512 C363.144333,321.604333 362.885333,321.733833 362.674,321.9005 C362.462667,322.067167 362.2945,322.222 362.1695,322.365 C362.0445,322.508 361.9225,322.674667 361.8035,322.865 L361.821,322.837 L361.8215,321.5795 L358.884,321.5795 L358.893,322.008 C358.899,322.293667 358.902,323.174667 358.902,324.651 C358.902,326.127333 358.896,328.053 358.884,330.428 L358.884,330.428 L361.8215,330.428 L361.8215,325.4905 C361.8215,325.187167 361.854167,324.946167 361.9195,324.7675 C362.0445,324.463833 362.2335,324.209333 362.4865,324.004 C362.7395,323.798667 363.0535,323.696 363.4285,323.696 C363.9405,323.696 364.317,323.873167 364.558,324.2275 C364.799,324.581833 364.9195,325.0715 364.9195,325.6965 L364.9195,325.6965 L364.9195,330.4285 L367.857,330.4285 L367.8575,325.356 C367.8575,324.052333 367.548,323.062667 366.929,322.387 C366.31,321.711333 365.4915,321.3735 364.4735,321.3735 Z M355.8035,317.320999 C355.3095,317.320667 354.909167,317.465 354.6025,317.754 C354.295833,318.043 354.1425,318.407667 354.1425,318.848 C354.1425,319.282667 354.291333,319.645833 354.589,319.9375 C354.886667,320.229167 355.2795,320.375 355.7675,320.375 L355.7675,320.375 L355.7855,320.375 C356.2855,320.375 356.688833,320.229167 356.9955,319.9375 C357.302167,319.645833 357.4525,319.282667 357.4465,318.848 C357.4405,318.407 357.288667,318.042333 356.991,317.754 C356.693333,317.465667 356.2975,317.321333 355.8035,317.320999 Z" id="Combined-Shape"></path>
        </g>
    </g>
</svg>