<?xml version="1.0" encoding="UTF-8"?>
<svg width="32px" height="32px" viewBox="0 0 32 32" version="1.1" xmlns="http://www.w3.org/2000/svg" xmlns:xlink="http://www.w3.org/1999/xlink">
    <!-- Generator: sketchtool 61.2 (101010) - https://sketch.com -->
    <title>C60ABDCE-6701-4731-87C3-3A23E6C5E53D</title>
    <desc>Created with sketchtool.</desc>
    <g id="Footer-Design-25.12" stroke="none" stroke-width="1" fill="none" fill-rule="evenodd">
        <g id="Assets" transform="translate(-201.000000, -308.000000)" fill="#000000">
            <g id="icn_instagram" transform="translate(201.000000, 308.000000)">
                <path d="M16,0 C24.836556,0 32,7.163444 32,16 C32,24.836556 24.836556,32 16,32 C7.163444,32 0,24.836556 0,16 C0,7.163444 7.163444,0 16,0 Z M16.3307608,9.2757574 L15.7312228,9.27576559 C14.5611627,9.27788757 13.7397308,9.29269231 13.2685,9.319 C12.06,9.377 11.125,9.737 10.4625,10.3995 C9.8,11.062 9.44,11.9975 9.382,13.2055 C9.353,13.717 9.3385,14.6375 9.3385,15.968 L9.3387492,16.2677772 C9.34074556,17.4378373 9.35476923,18.2592692 9.382,18.7305 C9.44,19.9395 9.8,20.8745 10.4625,21.537 C11.125,22.1995 12.0605,22.5595 13.2685,22.6175 C13.78,22.6465 14.7005,22.661 16.031,22.661 L16.3307608,22.6607344 C17.5006953,22.6586124 18.3213462,22.6438077 18.7935,22.6175 C20.0025,22.5595 20.9375,22.1995 21.6,21.537 C22.2625,20.8745 22.6225,19.9385 22.6805,18.7305 C22.7095,18.219 22.724,17.2985 22.724,15.968 C22.724,14.6375 22.71,13.717 22.6805,13.2055 C22.6225,11.997 22.2625,11.062 21.6,10.3995 C20.9375,9.737 20.0015,9.377 18.7935,9.319 C18.282,9.29 17.3615,9.2755 16.031,9.2755 Z M16.698,10.474 C17.1025,10.4705 17.4085,10.4705 17.6175,10.474 C17.8265,10.477 18.1065,10.4855 18.4585,10.5 C18.8095,10.515 19.109,10.544 19.356,10.5875 C19.603,10.631 19.8105,10.6845 19.979,10.749 C20.269,10.865 20.5255,11.034 20.746,11.2545 C20.9665,11.475 21.1355,11.7315 21.2515,12.0215 C21.3155,12.19 21.3695,12.398 21.413,12.6445 C21.457,12.891 21.486,13.1905 21.5005,13.542 C21.515,13.8935 21.524,14.174 21.5265,14.383 C21.529,14.5925 21.529,14.899 21.5265,15.3025 C21.5249375,15.5553125 21.5235703,15.7370312 21.5227646,15.8475342 L21.5227646,16.0921689 C21.5235703,16.2028281 21.5249375,16.3843125 21.5265,16.6365 C21.529,17.041 21.5295,17.347 21.5265,17.556 C21.5235,17.765 21.515,18.045 21.5005,18.397 C21.4855,18.748 21.4565,19.048 21.413,19.2945 C21.3695,19.5415 21.316,19.749 21.2515,19.9175 C21.1355,20.2085 20.9665,20.464 20.746,20.6845 C20.5255,20.905 20.269,21.074 19.979,21.19 C19.8105,21.254 19.6025,21.308 19.356,21.3515 C19.1095,21.3955 18.81,21.4245 18.4585,21.439 C18.107,21.4535 17.8265,21.4625 17.6175,21.465 C17.408,21.4675 17.1015,21.4675 16.698,21.465 C16.394625,21.463125 16.193625,21.4615312 16.0952109,21.4608516 L15.9662266,21.4608516 C15.8674375,21.4615312 15.666625,21.463125 15.364,21.465 C14.9595,21.4675 14.6535,21.468 14.4445,21.465 C14.2355,21.462 13.9555,21.4535 13.6035,21.439 C13.2525,21.424 12.9525,21.395 12.706,21.3515 C12.459,21.308 12.252,21.2545 12.083,21.19 C11.792,21.074 11.5365,20.905 11.316,20.6845 C11.0955,20.464 10.9265,20.2075 10.8105,19.9175 C10.7465,19.749 10.693,19.542 10.649,19.2945 C10.6055,19.048 10.576,18.7485 10.5615,18.397 C10.547,18.0455 10.538,17.765 10.5355,17.556 C10.533,17.3465 10.533,17.04 10.5355,16.6365 C10.538,16.232 10.54,16.0105 10.54,15.9695 C10.54,15.9285 10.538,15.706 10.5355,15.3025 C10.533,14.899 10.5325,14.592 10.5355,14.383 C10.5385,14.174 10.547,13.894 10.5615,13.542 C10.5765,13.191 10.6055,12.8915 10.649,12.6445 C10.6925,12.3975 10.746,12.1905 10.8105,12.0215 C10.9265,11.7315 11.0955,11.475 11.316,11.2545 C11.5365,11.034 11.793,10.865 12.083,10.749 C12.2515,10.685 12.4585,10.6315 12.706,10.5875 C12.9525,10.544 13.252,10.5145 13.6035,10.5 C13.955,10.4855 14.2355,10.4765 14.4445,10.474 C14.654,10.4715 14.9605,10.4715 15.364,10.474 C15.667375,10.475875 15.8678125,10.4774687 15.9663672,10.4781484 L16.0957734,10.4781484 C16.1945625,10.4774687 16.395375,10.475875 16.698,10.474 Z M16.0315,12.534 C15.0785,12.534 14.268,12.868 13.6,13.536 C12.932,14.204 12.598,15.0145 12.598,15.9675 C12.598,16.9205 12.9315,17.731 13.6005,18.399 C14.2685,19.067 15.079,19.401 16.032,19.401 C16.985,19.401 17.7955,19.067 18.4635,18.399 C19.1315,17.731 19.4655,16.92 19.4655,15.9675 C19.4655,15.015 19.1315,14.2045 18.4635,13.5365 L18.4635,13.5365 C17.795,12.868 16.985,12.534 16.0315,12.534 Z M16.0315,13.737 C16.6475,13.737 17.1735,13.955 17.609,14.3905 C18.0445,14.826 18.2625,15.352 18.2625,15.968 C18.2625,16.584 18.0445,17.11 17.609,17.5455 C17.1735,17.981 16.6475,18.199 16.0315,18.199 C15.4155,18.199 14.8895,17.981 14.454,17.5455 C14.0185,17.11 13.8005,16.584 13.8005,15.968 C13.8005,15.352 14.0185,14.826 14.454,14.3905 C14.8895,13.955 15.4155,13.737 16.0315,13.737 Z M19.6055,11.593 C19.385,11.593 19.1965,11.6715 19.0395,11.8285 C18.8825,11.9845 18.804,12.174 18.804,12.3945 C18.804,12.615 18.8825,12.8035 19.0395,12.9605 C19.1955,13.1175 19.385,13.196 19.6055,13.196 C19.826,13.196 20.0145,13.1175 20.1715,12.9605 C20.3285,12.8045 20.407,12.615 20.407,12.3945 C20.407,12.174 20.3285,11.9855 20.1715,11.8285 C20.0145,11.6725 19.826,11.594 19.6055,11.593 Z" id="Combined-Shape"></path>
            </g>
        </g>
    </g>
</svg>