<?xml version="1.0" encoding="UTF-8"?>
<svg width="38px" height="50px" viewBox="0 0 38 50" version="1.1" xmlns="http://www.w3.org/2000/svg" xmlns:xlink="http://www.w3.org/1999/xlink">
    <!-- Generator: sketchtool 61.2 (101010) - https://sketch.com -->
    <title>3AF09622-8C22-4B09-AB8C-18C70844F431</title>
    <desc>Created with sketchtool.</desc>
    <g id="Footer-Design-25.12" stroke="none" stroke-width="1" fill="none" fill-rule="evenodd">
        <g id="Assets" transform="translate(-284.000000, -29.000000)">
            <g id="Group-9" transform="translate(285.000000, 30.000000)">
                <path d="M13.6580126,38.7999814 C14.3847364,38.7999814 14.6958852,39.0830048 14.720803,39.6536437 L14.7218086,39.7803274 L14.7218086,40.6315744 C14.7218086,40.7897208 14.7469742,40.8292574 14.8818619,40.8435173 L14.9466351,40.8483533 L14.8972739,41.3074618 C14.462978,41.3539375 14.237462,41.2457363 14.1287545,41.0506983 L14.0967188,40.9825625 L14.0746534,40.9825625 C13.8937003,41.1888521 13.6743615,41.3332816 13.361788,41.3332816 C12.9066472,41.3332816 12.577639,41.0393123 12.577639,40.6625044 C12.577639,40.2498936 12.8788263,39.8963677 13.8788603,39.8261572 L14.0746534,39.8163676 L14.0746534,39.7596178 C14.0746534,39.4398286 13.932086,39.3056194 13.5701513,39.3056194 C13.3639717,39.3056194 13.122707,39.3749886 12.8968885,39.4766843 L12.7312104,39.5584384 L12.5997329,39.0786202 C12.9199276,38.8989321 13.2852126,38.8027547 13.6580126,38.7999814 Z M18.2472353,38.3354937 L18.2362598,38.8927713 L18.9490966,38.8927713 L18.9326333,39.3932992 L18.1978455,39.3932992 L18.1649761,40.492255 C18.1592597,40.714144 18.2800475,40.8174233 18.4993863,40.8174233 C18.5892982,40.8147552 18.6785138,40.8030082 18.7655136,40.7824607 L18.8941618,40.745074 L18.9820231,41.2404917 C18.793693,41.3033841 18.5951221,41.3347875 18.3952904,41.3332816 C17.8708768,41.3332816 17.5780499,41.1331465 17.5564911,40.6458783 L17.5563495,40.5282952 L17.5947352,39.4086297 L17.1999025,39.3674794 L17.2163658,38.9804511 L17.6111985,38.8618414 L17.6221169,38.3354937 L18.2472353,38.3354937 Z M23.3680845,38.7999814 C24.037105,38.7999814 24.409958,39.1816305 24.409958,39.764728 C24.4097358,39.8988006 24.3913132,40.0322973 24.3551376,40.1619766 C24.3499624,40.1619766 22.9118732,40.180017 22.720151,40.1824223 L22.6991212,40.1826862 L22.6991212,40.1982857 C22.7265599,40.585045 23.0062069,40.8483533 23.4558314,40.8483533 C23.6791262,40.8449481 23.8983481,40.7963444 24.0988401,40.7065658 L24.2454682,40.6315744 L24.3276703,41.1372124 C24.0865234,41.2612013 23.7519417,41.3332816 23.4119865,41.3332816 C22.6004273,41.3332816 22.0630844,40.8483533 22.0630844,40.0898962 C22.0630844,39.3158397 22.6113742,38.7999814 23.3680845,38.7999814 Z M26.1423744,38.7999814 C26.2605331,38.797925 26.3774817,38.8184796 26.4862596,38.8599674 L26.5920561,38.9083708 L26.4494602,39.4551592 C26.3391162,39.3959017 26.2145913,39.3639745 26.087554,39.3623692 C25.8908808,39.3623692 25.7067904,39.4651231 25.5499691,39.6843247 L25.4844152,39.7854376 L25.4844152,41.2560912 L24.8373743,41.2560912 L24.8373743,38.8927713 L25.4844152,38.8050916 L25.4844152,39.1921198 C25.6433886,38.9393008 25.8462642,38.7999814 26.1423744,38.7999814 Z M10.9385431,38.0310351 C11.8872677,38.0310351 12.3533555,38.4799233 12.3533555,39.1095502 C12.3533555,39.8059791 11.8762833,40.1941589 11.0575567,40.2443932 L10.8892962,40.2499253 L10.4999798,40.2550355 L10.4999798,41.2560912 L9.83095931,41.2560912 L9.83095931,38.0310351 L10.9385431,38.0310351 Z M16.5803005,38.7999814 C16.6984591,38.797925 16.8154077,38.8184796 16.9241856,38.8599674 L17.0299821,38.9083708 L16.8873862,39.4551592 C16.7770422,39.3959017 16.6525174,39.3639745 16.52548,39.3623692 C16.3288068,39.3623692 16.1447164,39.4651231 15.9878952,39.6843247 L15.9223412,39.7854376 L15.9223412,41.2560912 L15.2753004,41.2560912 L15.2753004,38.8927713 L15.9223412,38.8050916 L15.9223412,39.1921198 C16.0813147,38.9393008 16.2842188,38.7999814 16.5803005,38.7999814 Z M20.835113,38.7999814 C21.3058201,38.7999814 21.5990112,39.063756 21.6413323,39.506054 L21.6466436,39.6202984 L21.6466436,41.2560912 L20.9996313,41.2560912 L20.9996313,39.8061472 C20.9996313,39.4551592 20.8515762,39.3365494 20.5609252,39.3365494 C20.3735221,39.3365494 20.197651,39.4118198 20.0712396,39.5025926 L20.0016313,39.5584384 L20.0016313,41.2560912 L19.3545904,41.2560912 L19.3545904,38.8876612 L20.0016313,38.8050916 L20.0016313,39.1816305 C20.2264578,38.9495211 20.5280272,38.7999814 20.835113,38.7999814 Z M14.0747677,40.1364257 C13.444133,40.208506 13.2138758,40.3271158 13.2138758,40.5799348 C13.2138758,40.7606735 13.3619023,40.8895036 13.5921881,40.8895036 C13.7400055,40.8888499 13.8819517,40.8406786 13.9953889,40.7546668 L14.0747677,40.683214 L14.0747677,40.1364257 Z M23.3186661,39.2590899 C22.997941,39.2590899 22.7926723,39.4806482 22.7308432,39.7392634 L22.7155844,39.8265879 L23.8011886,39.8214778 L23.8011886,39.7803274 C23.8011886,39.4602693 23.6530763,39.2590899 23.3186661,39.2590899 Z M10.8948697,38.5573827 L10.4890043,38.5573827 L10.4890043,39.733798 L10.9166778,39.7235776 C11.4266676,39.7130883 11.6843921,39.5067988 11.6843921,39.1302598 C11.6843921,38.7534519 11.4211513,38.5573827 10.8948697,38.5573827 Z M18.986653,33.4450892 C19.1711058,33.4478219 19.3536551,33.4771291 19.5280236,33.5316938 L19.6994326,33.594629 L20.3794001,33.5378792 L20.4067817,34.069337 L19.9242592,33.9921465 C19.9900837,34.0591167 20.0394449,34.2395864 20.0394449,34.3635753 C20.0394449,34.8485037 19.6062265,35.2304217 18.9811081,35.2304217 C18.8645281,35.2310815 18.7483723,35.217153 18.6356938,35.1890025 C18.5479468,35.2202014 18.4382774,35.2973919 18.4382774,35.395561 C18.4382774,35.5100766 18.5291755,35.5678524 18.8344273,35.5792777 L18.9591856,35.5814098 L19.2224837,35.5814098 C19.946296,35.5814098 20.3575919,35.7720999 20.3575919,36.2365876 C20.3575919,36.7989754 19.6831123,37.1860037 18.8825571,37.1860037 C18.2135938,37.1860037 17.6816815,36.9538943 17.6816815,36.5254468 C17.6816815,36.2777379 17.8735815,36.0558489 18.2519509,35.9993681 C18.0326121,35.9270188 17.8681223,35.777479 17.868008,35.58652 C17.868008,35.3697412 18.0544203,35.1736719 18.3340672,35.0859922 C18.0544203,34.9517829 17.8734672,34.6833644 17.8734672,34.353355 C17.8734672,33.8630475 18.2847632,33.4450892 18.986653,33.4450892 Z M18.5864469,36.0816687 C18.4054938,36.1437977 18.2684142,36.2572972 18.2684142,36.4017268 C18.2684142,36.6236159 18.5590081,36.7782658 18.9867673,36.7782658 C19.4309041,36.7782658 19.7708592,36.6236159 19.7708592,36.375907 C19.7708592,36.154018 19.5405735,36.1023784 19.0689694,36.1023784 C18.9099387,36.1023784 18.6906571,36.092158 18.5864469,36.0816687 Z M11.9083323,33.4450892 C12.1686911,33.4450892 12.4711092,33.4988805 12.7011426,33.5824936 L12.8295609,33.6360483 L12.686965,34.1107563 C12.4402446,33.9921465 12.1167527,33.9146871 11.8918976,33.9146871 C11.6561527,33.9146871 11.5135567,33.9972567 11.5135567,34.1519066 C11.5135567,34.3326453 11.7274363,34.3945053 12.0235466,34.4614754 C12.5060691,34.5698648 12.8843813,34.7454934 12.8843813,35.2097121 C12.8843813,35.6534902 12.4786303,35.9837686 11.8315322,35.9837686 C11.5573587,35.9837686 11.2337025,35.9228799 10.9874462,35.8249162 L10.8499954,35.7618796 L10.9925914,35.2871715 C11.2449139,35.4213808 11.5683486,35.5090606 11.8479955,35.5090606 C12.1002323,35.5090606 12.2647507,35.4108915 12.2647507,35.2457523 C12.2647507,35.0601724 12.050871,34.9929333 11.7547608,34.9259631 C11.2776975,34.8226839 10.8993852,34.6371039 10.8993852,34.1882157 C10.8993852,33.7393275 11.2995342,33.4450892 11.9083323,33.4450892 Z M23.7842676,33.4450892 C24.5109915,33.4450892 24.8221402,33.7283469 24.847058,34.2987984 L24.8480636,34.4254353 L24.8480636,35.2769512 C24.8480636,35.4348622 24.8732292,35.4743694 25.0081169,35.4886257 L25.0728902,35.4934611 L25.0235289,35.9528386 C24.589233,35.9993143 24.363717,35.8911131 24.2550095,35.695879 L24.2228594,35.6276703 L24.200937,35.6276703 C24.0199553,35.8339599 23.8006165,35.9786584 23.4880716,35.9786584 C23.0329022,35.9786584 22.703894,35.6844201 22.703894,35.3078812 C22.703894,34.8950173 23.0050813,34.5417147 24.0051392,34.4713071 L24.200937,34.4614754 L24.200937,34.4047256 C24.200937,34.0849365 24.058341,33.9507272 23.6964063,33.9507272 C23.4902267,33.9507272 23.248962,34.0200965 23.0231436,34.1217921 L22.8574654,34.2035462 L22.7259879,33.723728 C23.0462373,33.54416 23.4114871,33.4479918 23.7842676,33.4450892 Z M16.2837039,33.4450892 C17.0104278,33.4450892 17.3215765,33.7283469 17.3464944,34.2987984 L17.3475,34.4254353 L17.3475,35.2769512 C17.3475,35.4348622 17.3726437,35.4743694 17.5075259,35.4886257 L17.5722979,35.4934611 L17.5229367,35.9528386 C17.0886665,35.9993143 16.8631299,35.8911131 16.7544181,35.695879 L16.7222672,35.6276703 L16.7003448,35.6276703 C16.5193631,35.8339599 16.3000243,35.9786584 15.9874794,35.9786584 C15.5323385,35.9786584 15.2033303,35.6844201 15.2033303,35.3078812 C15.2033303,34.8950173 15.5044924,34.5417147 16.5045472,34.4713071 L16.7003448,34.4614754 L16.7003448,34.4047256 C16.7003448,34.0849365 16.5577488,33.9507272 16.1958141,33.9507272 C15.9896573,33.9507272 15.7483972,34.0200965 15.5225797,34.1217921 L15.3569018,34.2035462 L15.2254243,33.723728 C15.5456704,33.5441528 15.9109223,33.4479841 16.2837039,33.4450892 Z M14.1563691,32.9806015 L14.1453936,33.5378792 L14.8583447,33.5378792 L14.8418815,34.038407 L14.1070936,34.038407 L14.0742243,35.1376318 C14.0685079,35.3595208 14.1892957,35.4625311 14.4086345,35.4625311 C14.4985263,35.4598391 14.5877257,35.4481262 14.6747323,35.4276664 L14.80341,35.3904508 L14.891157,35.8855995 C14.7028795,35.9487109 14.5042839,35.9802092 14.3044243,35.9786584 C13.7800107,35.9786584 13.4871837,35.7782914 13.465625,35.2912054 L13.4654834,35.1736719 L13.5038691,34.0540065 L13.1090364,34.0125872 L13.1254997,33.625559 L13.5203324,33.5069492 L13.5312507,32.9806015 L14.1563691,32.9806015 Z M9.56180158,33.4450892 C10.0325087,33.4450892 10.3256998,33.7088638 10.3680209,34.1511618 L10.3733323,34.2654062 L10.3733323,35.901199 L9.72631997,35.901199 L9.72631997,34.4512551 C9.72631997,34.100267 9.57826485,33.9816572 9.28761379,33.9816572 C9.10021069,33.9816572 8.92433967,34.0569277 8.79792819,34.1477004 L8.72831987,34.2035462 L8.72831987,35.901199 L8.081279,35.901199 L8.081279,33.532769 L8.72831987,33.4501994 L8.72831987,33.8270073 C8.95300351,33.594629 9.25471583,33.4450892 9.56180158,33.4450892 Z M22.0681144,33.4450892 C22.1862729,33.4430348 22.303221,33.4635898 22.4119991,33.5050766 L22.5177961,33.5534786 L22.3752002,34.100267 C22.2648473,34.0410062 22.1403123,34.0090789 22.0132654,34.007477 C21.8165922,34.007477 21.6324799,34.110231 21.4756723,34.3294325 L21.4101552,34.4305454 L21.4101552,35.901199 L20.7631143,35.901199 L20.7631143,33.5378792 L21.4101552,33.4501994 L21.4101552,33.8372276 C21.5691287,33.5844086 21.7720042,33.4450892 22.0681144,33.4450892 Z M28.554472,33.4450892 C28.9948117,33.4450892 29.2858617,33.7088638 29.3280331,34.1553926 L29.3333333,34.2707853 L29.3333333,35.901199 L28.6862353,35.901199 L28.6862353,34.4563653 C28.6862353,34.1056461 28.5381802,33.9816572 28.2695087,33.9816572 C28.0895789,33.9816572 27.9412768,34.0510265 27.8246025,34.1316531 L27.743027,34.1933259 L27.743027,35.901199 L27.0959862,35.901199 L27.0959862,34.4563653 C27.0959862,34.1056461 26.9533616,33.9816572 26.6846902,33.9816572 C26.5279071,33.9800059 26.3755842,34.0247349 26.2485405,34.1080894 L26.1583228,34.1777264 L26.1583228,35.901199 L25.5112819,35.901199 L25.5112819,33.532769 L26.1583228,33.4501994 L26.1583228,33.785588 C26.3941249,33.563699 26.6517922,33.4450892 26.9643371,33.4450892 C27.2714229,33.4450892 27.5291474,33.5844086 27.6552801,33.8528271 C27.9074882,33.594629 28.2092006,33.4450892 28.554472,33.4450892 Z M7.33017081,32.6761429 L7.33017081,35.901199 L6.66666667,35.901199 L6.66666667,32.6761429 L7.33017081,32.6761429 Z M16.7004591,34.7815335 C16.0698243,34.8536138 15.8395386,34.9724926 15.8395386,35.2253116 C15.8395386,35.4057813 15.9875937,35.5348804 16.2178794,35.5348804 C16.3657494,35.5342439 16.5077346,35.4860012 16.6211289,35.3998713 L16.7004591,35.3283219 L16.7004591,34.7815335 Z M24.2010513,34.7815335 C23.570388,34.8536138 23.3401308,34.9724926 23.3401308,35.2253116 C23.3401308,35.4057813 23.4881859,35.5348804 23.7184431,35.5348804 C23.8663198,35.5342445 24.0083121,35.4860023 24.1217147,35.3998719 L24.2010513,35.3283219 L24.2010513,34.7815335 Z M18.9647591,33.8579373 C18.679653,33.8579373 18.4986999,34.0591167 18.4986999,34.3584651 C18.4986999,34.6422141 18.679653,34.8331732 18.9922265,34.8331732 C19.282849,34.8331732 19.4473102,34.6371039 19.4473102,34.3377555 C19.4473102,34.0540065 19.2883082,33.8579373 18.9647591,33.8579373 Z M22.8261262,6.66666667 C26.4191563,6.66666667 29.3318826,9.47922808 29.3318826,12.9486984 L29.3318826,22.2704229 C29.3318826,25.7398933 26.4191563,28.5524547 22.8261262,28.5524547 L13.1724231,28.5524547 C9.57939304,28.5524547 6.66666667,25.7398933 6.66666667,22.2704229 L6.66666667,12.9486984 C6.66666667,9.47922808 9.57939304,6.66666667 13.1724231,6.66666667 L22.8261262,6.66666667 Z M22.8261262,8.69312852 L13.1724231,8.69312852 C10.738435,8.69312852 8.76529778,10.5984121 8.76529778,12.9486984 L8.76529778,22.2704229 C8.76529778,24.6207093 10.738435,26.5259928 13.1724231,26.5259928 L22.8261262,26.5259928 C25.2601143,26.5259928 27.2332515,24.6207093 27.2332515,22.2704229 L27.2332515,12.9486984 C27.2332515,10.5984121 25.2601143,8.69312852 22.8261262,8.69312852 Z M18.1702872,12.0215588 C21.466656,12.0215588 24.1363957,14.6146093 24.1363957,17.8103462 C24.1363957,21.0060831 21.466656,23.5991336 18.1702872,23.5991336 C14.8739184,23.5991336 12.2041788,21.0060831 12.2041788,17.8103462 C12.2041788,14.6146093 14.8739184,12.0215588 18.1702872,12.0215588 Z M18.1702872,14.0480207 C16.0357166,14.0480207 14.3028099,15.7311491 14.3028099,17.8103462 C14.3028099,19.8895433 16.0357166,21.5726717 18.1702872,21.5726717 C20.3048579,21.5726717 22.0377646,19.8895433 22.0377646,17.8103462 C22.0377646,15.7311491 20.3048579,14.0480207 18.1702872,14.0480207 Z M23.9271912,9.72660505 C24.7219629,9.72660505 25.3662526,10.3523873 25.3662526,11.1243289 C25.3662526,11.8962704 24.7219629,12.5220527 23.9271912,12.5220527 C23.1324196,12.5220527 22.4881299,11.8962704 22.4881299,11.1243289 C22.4881299,10.3523873 23.1324196,9.72660505 23.9271912,9.72660505 Z" id="Combined-Shape" fill="#000000" fill-rule="nonzero"></path>
                <rect id="Frame" stroke="#000000" stroke-width="1.33333333" x="0" y="0" width="36" height="48" rx="2.66666667"></rect>
            </g>
        </g>
    </g>
</svg>