<?xml version="1.0" encoding="UTF-8"?>
<svg width="155px" height="42px" viewBox="0 0 155 42" version="1.1" xmlns="http://www.w3.org/2000/svg" xmlns:xlink="http://www.w3.org/1999/xlink">
    <!-- Generator: sketchtool 61.2 (101010) - https://sketch.com -->
    <title>1E1D15AB-8FAE-4E46-B523-4D2DC10BC8F8</title>
    <desc>Created with sketchtool.</desc>
    <g id="Footer-Design-25.12" stroke="none" stroke-width="1" fill="none" fill-rule="evenodd">
        <g id="Assets" transform="translate(-153.000000, -218.000000)" fill-rule="nonzero">
            <g id="Shopify-App-Store-Badge-Final-Black" transform="translate(153.000000, 218.000000)">
                <g id="Group">
                    <path d="M4.64986667,41.0666667 C2.34266667,41.0666667 0.466666667,39.2233333 0.466666667,36.9581333 L0.466666667,5.04186667 C0.466666667,2.77666667 2.34266667,0.933333333 4.64986667,0.933333333 L150.2844,0.933333333 C152.590667,0.933333333 154.4676,2.77666667 154.4676,5.04186667 L154.4676,36.9581333 C154.4676,39.2233333 152.5916,41.0666667 150.2844,41.0666667 L4.64986667,41.0666667 Z" id="Path" fill="#000000"></path>
                    <path d="M150.2844,41.4166667 L4.64893333,41.4166667 C2.14946667,41.4166667 0.116666667,39.4165333 0.116666667,36.9581333 L0.116666667,5.04186667 C0.116666667,2.58346667 2.1504,0.583333333 4.64893333,0.583333333 L150.283467,0.583333333 C152.782933,0.583333333 154.815734,2.58346667 154.815734,5.04186667 L154.815734,36.9581333 C154.815734,39.4165333 152.782933,41.4166667 150.2844,41.4166667 Z M4.64893333,1.28333333 C2.53586667,1.28333333 0.816666667,2.96986667 0.816666667,5.04186667 L0.816666667,36.9581333 C0.816666667,39.0301333 2.53586667,40.7166667 4.64893333,40.7166667 L150.283467,40.7166667 C152.397467,40.7166667 154.115733,39.0301333 154.115733,36.9581333 L154.115733,5.04186667 C154.115733,2.96986667 152.396533,1.28333333 150.283467,1.28333333 L4.64893333,1.28333333 Z" id="Shape" fill="#C3CCD4"></path>
                </g>
                <g id="Group" transform="translate(8.400000, 8.400000)" fill="#FFFFFF">
                    <g>
                        <path d="M18.0329333,4.36146667 C17.9498667,4.35493333 16.184,4.22333333 16.184,4.22333333 C16.184,4.22333333 14.9576,3.00626667 14.8232,2.87093333 C14.7905333,2.83826667 14.7504,2.81586667 14.7065333,2.80186667 L13.832,23.0104 L20.7414667,21.5096 C20.7414667,21.5096 18.2494667,4.66293333 18.2336,4.54813333 C18.2177333,4.4324 18.116,4.36893333 18.0329333,4.36146667 Z" id="Path"></path>
                        <path d="M14.3229333,2.8084 C14.308,2.81306667 14.0550667,2.89053333 13.6369333,3.02026667 C13.2272,1.84146667 12.5048,0.7588 11.2326667,0.7588 C11.1972,0.7588 11.1617333,0.760666667 11.1253333,0.762533333 C10.7632,0.284666667 10.3161333,0.0765333333 9.9288,0.0765333333 C6.9664,0.0765333333 5.55146667,3.78 5.1072,5.6616 C3.9564,6.01813333 3.1388,6.272 3.03426667,6.30466667 C2.39213333,6.50626667 2.3716,6.5268 2.2876,7.1316 C2.22413333,7.58986667 0.542266667,20.5912 0.542266667,20.5912 L13.5165333,23.0225333 L14.392,2.79253333 C14.3658667,2.7972 14.3416,2.8028 14.3229333,2.8084 Z M11.0282667,3.6988 C11.0282667,3.7436 11.0282667,3.7856 11.0273333,3.8276 C10.3058667,4.05066667 9.5228,4.29333333 8.73786667,4.536 C9.1784,2.83453333 10.0053333,2.0132 10.7277333,1.70333333 C10.9097333,2.15973333 11.0282667,2.81493333 11.0282667,3.6988 Z M9.8476,0.8708 C9.97546667,0.8708 10.1042667,0.913733333 10.2274667,0.998666667 C9.27826667,1.44573333 8.26,2.5704 7.83066667,4.81786667 C7.20253333,5.012 6.5884,5.2024 6.02093333,5.3788 C6.52493333,3.66426667 7.7196,0.8708 9.8476,0.8708 Z M10.3581333,10.8873333 C10.3581333,10.8873333 9.59093333,10.4776 8.65106667,10.4776 C7.27253333,10.4776 7.20346667,11.3428 7.20346667,11.5602667 C7.20346667,12.7493333 10.3030667,13.2048 10.3030667,15.9898667 C10.3030667,18.1813333 8.91333333,19.5925333 7.0392,19.5925333 C4.7908,19.5925333 3.64,18.1925333 3.64,18.1925333 L4.242,16.2036 C4.242,16.2036 5.42453333,17.2181333 6.42133333,17.2181333 C7.0728,17.2181333 7.33786667,16.7048 7.33786667,16.3305333 C7.33786667,14.7793333 4.79453333,14.7102667 4.79453333,12.1613333 C4.79453333,10.0165333 6.33453333,7.9408 9.44253333,7.9408 C10.64,7.9408 11.2317333,8.28426667 11.2317333,8.28426667 L10.3581333,10.8873333 Z M11.8048,3.5868 C11.8048,3.5084 11.8057333,3.43186667 11.8057333,3.34786667 C11.8057333,2.6152 11.704,2.02533333 11.5406667,1.55773333 C12.1958667,1.63986667 12.6326667,2.3856 12.9136,3.24333333 C12.5841333,3.346 12.2098667,3.46173333 11.8048,3.5868 Z" id="Shape"></path>
                    </g>
                    <g transform="translate(27.066667, 10.266667)">
                        <path d="M3.98626667,11.6862667 C1.66226667,11.6862667 0.584266667,10.2302667 0.360266667,8.78826667 L1.85826667,8.56426667 C2.04026667,9.55826667 2.53026667,10.4542667 3.98626667,10.4542667 C5.07826667,10.4542667 5.86226667,9.82426667 5.86226667,8.88626667 C5.86226667,7.87826667 5.33026667,7.45826667 3.77626667,7.0392 C1.76026667,6.5492 0.696266667,5.8212 0.696266667,4.0992 C0.696266667,2.5452 1.97026667,1.4112 3.88826667,1.4112 C5.77826667,1.4112 6.94026667,2.4192 7.20626667,3.9032 L5.73626667,4.1412 C5.54026667,3.1752 4.86826667,2.6292 3.8892,2.6292 C2.7692,2.6292 2.1812,3.1752 2.1812,3.9872 C2.1812,4.8272 2.5452,5.2472 4.1972,5.6672 C6.2272,6.1712 7.3892,6.8712 7.3892,8.7472 C7.38826667,10.4552 6.03026667,11.6862667 3.98626667,11.6862667 Z" id="Path"></path>
                        <path d="M8.81626667,0.8512 L10.3002667,0.8512 L10.3002667,5.3452 C10.6362667,4.6592 11.4062667,4.0852 12.5402667,4.0852 C13.9402667,4.0852 14.9062667,4.8972 14.9062667,6.8292 L14.9062667,11.5472 L13.3942667,11.5472 L13.3942667,6.9132 C13.3942667,5.8352 12.9462667,5.3452 11.9802667,5.3452 C11.0842667,5.3452 10.3002667,5.9192 10.3002667,7.0392 L10.3002667,11.5472 L8.81626667,11.5472 L8.81626667,0.8512 L8.81626667,0.8512 Z" id="Path"></path>
                        <path d="M16.1382667,7.6132 C16.1382667,5.4712 17.6222667,4.0852 19.6102667,4.0852 C21.5982667,4.0852 23.0822667,5.4572 23.0822667,7.5852 L23.0822667,8.1592 C23.0822667,10.3152 21.5842667,11.6872 19.5962667,11.6872 C17.5942667,11.6872 16.1382667,10.2872 16.1382667,8.1872 L16.1382667,7.6132 Z M19.6102667,10.4972 C20.8142667,10.4972 21.5422667,9.6012 21.5422667,8.1872 L21.5422667,7.5992 C21.5422667,6.1572 20.8002667,5.2752 19.6102667,5.2752 C18.4062667,5.2752 17.6642667,6.1432 17.6642667,7.5852 L17.6642667,8.1732 C17.6642667,9.6152 18.3782667,10.4972 19.6102667,10.4972 Z" id="Shape"></path>
                        <path d="M25.8533333,4.2252 L25.8533333,5.3872 C26.2593333,4.6872 27.1133333,4.0852 28.1493333,4.0852 C29.8713333,4.0852 31.1453333,5.3452 31.1453333,7.5292 L31.1453333,8.1592 C31.1453333,10.3572 29.9133333,11.6872 28.1213333,11.6872 C27.0293333,11.6872 26.2313333,11.1272 25.8533333,10.4272 L25.8533333,14.0532 L24.3693333,14.0532 L24.3693333,4.2252 L25.8533333,4.2252 Z M27.7862667,10.4822667 C28.9622667,10.4822667 29.6062667,9.68426667 29.6062667,8.20026667 L29.6062667,7.57026667 C29.6062667,6.03026667 28.8222667,5.27426667 27.7862667,5.27426667 C26.6522667,5.27426667 25.8262658,6.03026667 25.8262658,7.61226667 L25.8262658,8.15826667 C25.8253333,9.7412 26.5953333,10.4822667 27.7862667,10.4822667 Z" id="Shape"></path>
                        <path d="M32.3073333,2.0972 C32.3073333,1.5932 32.7133333,1.2012 33.2173333,1.2012 C33.7353333,1.2012 34.1413333,1.5932 34.1413333,2.0972 C34.1413333,2.6012 33.7353333,2.9932 33.2173333,2.9932 C32.6993333,2.9932 32.3073333,2.6012 32.3073333,2.0972 Z M32.4753333,4.2252 L33.9733333,4.2252 L33.9733333,11.5472 L32.4753333,11.5472 L32.4753333,4.2252 Z" id="Shape"></path>
                        <path d="M36.0033333,5.4152 L35.0513333,5.4152 L35.0513333,4.2252 L36.0033333,4.2252 L36.0033333,3.1752 C36.0033333,1.6352 36.8153333,0.7952 38.3693333,0.7952 C38.8453333,0.7952 39.2093333,0.8512 39.5033333,0.9632 L39.5033333,2.1532 C39.3073333,2.0552 38.9153333,1.9852 38.5513333,1.9852 C37.7813333,1.9852 37.5153333,2.4332 37.5153333,3.1192 L37.5153333,4.2252 L39.4193333,4.2252 L39.4193333,5.4152 L37.5153333,5.4152 L37.5153333,11.5472 L36.0033333,11.5472 L36.0033333,5.4152 Z" id="Path"></path>
                        <polygon id="Path" points="43.6053333 9.0692 45.3413333 4.2252 46.8253333 4.2252 43.0593333 14.0532 41.5613333 14.0532 42.8073333 10.8192 40.0913333 4.2252 41.7153333 4.2252"></polygon>
                        <path d="M55.8973333,8.9712 L52.3553333,8.9712 L51.5993333,11.5472 L50.1293333,11.5472 L53.1402667,1.5372 L55.2533333,1.5372 L58.2344,11.5472 L56.6384,11.5472 L55.8973333,8.9712 Z M52.6913333,7.7952 L55.5613333,7.7952 L54.1193333,2.8392 L52.6913333,7.7952 Z" id="Shape"></path>
                        <path d="M60.8393333,4.2252 L60.8393333,5.3872 C61.2462667,4.6872 62.1002667,4.0852 63.1353333,4.0852 C64.8582667,4.0852 66.1313333,5.3452 66.1313333,7.5292 L66.1313333,8.1592 C66.1313333,10.3572 64.9002667,11.6872 63.1082667,11.6872 C62.0162667,11.6872 61.2182667,11.1272 60.8393333,10.4272 L60.8393333,14.0532 L59.3553333,14.0532 L59.3553333,4.2252 L60.8393333,4.2252 Z M62.7713333,10.4822667 C63.9473333,10.4822667 64.5913333,9.68426667 64.5913333,8.20026667 L64.5913333,7.57026667 C64.5913333,6.03026667 63.8073333,5.27426667 62.7713333,5.27426667 C61.6373333,5.27426667 60.8113333,6.03026667 60.8113333,7.61226667 L60.8113333,8.15826667 C60.8113333,9.7412 61.5804,10.4822667 62.7713333,10.4822667 Z" id="Shape"></path>
                        <path d="M68.9173333,4.2252 L68.9173333,5.3872 C69.3233333,4.6872 70.1773333,4.0852 71.2133333,4.0852 C72.9353333,4.0852 74.2093333,5.3452 74.2093333,7.5292 L74.2093333,8.1592 C74.2093333,10.3572 72.9773333,11.6872 71.1853333,11.6872 C70.0933333,11.6872 69.2962667,11.1272 68.9173333,10.4272 L68.9173333,14.0532 L67.4333333,14.0532 L67.4333333,4.2252 L68.9173333,4.2252 Z M70.8493333,10.4822667 C72.0253333,10.4822667 72.6684,9.68426667 72.6684,8.20026667 L72.6684,7.57026667 C72.6684,6.03026667 71.8844,5.27426667 70.8493333,5.27426667 C69.7144,5.27426667 68.8884,6.03026667 68.8884,7.61226667 L68.8884,8.15826667 C68.8893333,9.7412 69.6593333,10.4822667 70.8493333,10.4822667 Z" id="Shape"></path>
                        <path d="M81.5724,11.6862667 C79.2484,11.6862667 78.1704,10.2302667 77.9464,8.78826667 L79.4434667,8.56426667 C79.6254667,9.55826667 80.1164,10.4542667 81.5714667,10.4542667 C82.6634667,10.4542667 83.4474667,9.82426667 83.4474667,8.88626667 C83.4474667,7.87826667 82.9164,7.45826667 81.3624,7.0392 C79.3464,6.5492 78.2824,5.8212 78.2824,4.0992 C78.2824,2.5452 79.5554667,1.4112 81.4744,1.4112 C83.3634667,1.4112 84.5264,2.4192 84.7924,3.9032 L83.3224,4.1412 C83.1264,3.1752 82.4544,2.6292 81.4753333,2.6292 C80.3553333,2.6292 79.7673333,3.1752 79.7673333,3.9872 C79.7673333,4.8272 80.1313333,5.2472 81.7824,5.6672 C83.8133333,6.1712 84.9744,6.8712 84.9744,8.7472 C84.9744,10.4552 83.6173333,11.6862667 81.5724,11.6862667 Z" id="Path"></path>
                        <path d="M88.1944,2.2232 L88.1944,4.2252 L90.0284,4.2252 L90.0284,5.4152 L88.1944,5.4152 L88.1944,9.4752 C88.1944,10.1472 88.5304,10.4132 89.1473333,10.4132 C89.5113333,10.4132 89.8613333,10.3572 90.1133333,10.2452 L90.1133333,11.4352 C89.8324,11.5612 89.4404,11.6452 88.8944,11.6452 C87.3973333,11.6452 86.6973333,10.9032 86.6973333,9.6152 L86.6973333,5.4152 L85.7313333,5.4152 L85.7313333,4.2252 L86.6973333,4.2252 L86.6973333,2.2232 L88.1944,2.2232 L88.1944,2.2232 Z" id="Path"></path>
                        <path d="M90.9533333,7.6132 C90.9533333,5.4712 92.4373333,4.0852 94.4253333,4.0852 C96.4133333,4.0852 97.8973333,5.4572 97.8973333,7.5852 L97.8973333,8.1592 C97.8973333,10.3152 96.3993333,11.6872 94.4113333,11.6872 C92.4093333,11.6872 90.9542667,10.2872 90.9542667,8.1872 L90.9542667,7.6132 L90.9533333,7.6132 Z M94.4253333,10.4972 C95.6293333,10.4972 96.3564,9.6012 96.3564,8.1872 L96.3564,7.5992 C96.3564,6.1572 95.6144,5.2752 94.4253333,5.2752 C93.2213333,5.2752 92.4793333,6.1432 92.4793333,7.5852 L92.4793333,8.1732 C92.4793333,9.6152 93.1933333,10.4972 94.4253333,10.4972 Z" id="Shape"></path>
                        <path d="M99.1853333,4.2252 L100.669333,4.2252 L100.669333,5.5272 C101.1164,4.6312 101.747333,4.1132 103.189333,4.1272 L103.189333,5.5412 C101.5364,5.5552 100.669333,6.0032 100.669333,7.5292 L100.669333,11.5472 L99.1853333,11.5472 L99.1853333,4.2252 Z" id="Path"></path>
                        <path d="M107.1504,11.6862667 C105.1484,11.6862667 103.735333,10.3702667 103.735333,8.18626667 L103.735333,7.61226667 C103.735333,5.47026667 105.135333,4.08426667 107.0804,4.08426667 C108.7884,4.08426667 110.287333,5.09226667 110.287333,7.54226667 L110.287333,8.20026667 L105.247333,8.20026667 C105.262267,9.78226667 105.975333,10.5242667 107.193333,10.5242667 C108.258267,10.5242667 108.775333,9.86626667 108.929333,9.32026667 L110.231333,9.62826667 C109.963467,10.6232 108.9704,11.6862667 107.1504,11.6862667 Z M105.2604,7.1652 L108.8024,7.1652 L108.8024,7.1232 C108.745467,5.7792 108.1024,5.2192 107.079467,5.2192 C106.1704,5.2192 105.4004,5.7932 105.2604,7.1652 Z" id="Shape"></path>
                    </g>
                    <g transform="translate(28.000000, 2.800000)">
                        <polygon id="Path" points="0.829733333 0.14 3.52333333 0.14 3.52333333 0.819466667 1.68746667 0.819466667 1.68746667 2.1532 3.15466667 2.1532 3.15466667 2.8196 1.68746667 2.8196 1.68746667 4.68066667 0.829733333 4.68066667 0.829733333 0.14"></polygon>
                        <polygon id="Path" points="4.69466667 0.14 5.55893333 0.14 5.55893333 4.6816 4.69466667 4.6816"></polygon>
                        <polygon id="Path" points="6.9916 0.14 7.99493333 0.14 9.65906667 3.29 9.65906667 0.14 10.4402667 0.14 10.4402667 4.6816 9.56386667 4.6816 7.76626667 1.28333333 7.76626667 4.6816 6.99066667 4.6816 6.99066667 0.14"></polygon>
                        <path d="M13.2888,0.14 C14.7308,0.14 15.4550667,0.908133333 15.4550667,2.15973333 L15.4550667,2.6292 C15.4550667,3.86773333 14.7438667,4.68066667 13.2888,4.68066667 L11.8402667,4.68066667 L11.8402667,0.14 L13.2888,0.14 Z M12.698,0.812933333 L12.698,4.00213333 L13.2570667,4.00213333 C14.1521333,4.00213333 14.5656,3.51866667 14.5656,2.63013333 L14.5656,2.1728 C14.5656,1.302 14.1848,0.812933333 13.2505333,0.812933333 L12.698,0.812933333 L12.698,0.812933333 Z" id="Shape"></path>
                        <polygon id="Path" points="18.5304 0.14 19.3937333 0.14 19.3937333 4.6816 18.5304 4.6816"></polygon>
                        <polygon id="Path" points="21.7037333 0.819466667 20.5156 0.819466667 20.5156 0.14 23.7486667 0.14 23.7486667 0.819466667 22.568 0.819466667 22.568 4.6816 21.7046667 4.6816 21.7046667 0.819466667"></polygon>
                        <path d="M26.488,2.65533333 L26.488,2.1532 C26.488,0.914666667 27.314,0.0821333333 28.5012,0.0821333333 C29.6949333,0.0821333333 30.5022667,0.888533333 30.5022667,2.14666667 L30.5022667,2.63573333 C30.5022667,3.88733333 29.7210667,4.74413333 28.4956,4.74413333 C27.2701333,4.74413333 26.488,3.88733333 26.488,2.65533333 Z M29.6137333,2.6488 L29.6137333,2.1532 C29.6137333,1.32066667 29.2198667,0.762533333 28.5021333,0.762533333 C27.7844,0.762533333 27.384,1.3216 27.384,2.1532 L27.384,2.6488 C27.384,3.51866667 27.7909333,4.05253333 28.5021333,4.05253333 C29.2133333,4.05253333 29.6137333,3.51213333 29.6137333,2.6488 Z" id="Shape"></path>
                        <polygon id="Path" points="31.7370667 0.14 32.7404 0.14 34.4045333 3.29 34.4045333 0.14 35.1857333 0.14 35.1857333 4.6816 34.3093333 4.6816 32.5117333 1.28333333 32.5117333 4.6816 31.7361333 4.6816 31.7361333 0.14"></polygon>
                        <polygon id="Path" points="39.2774667 0.819466667 38.0893333 0.819466667 38.0893333 0.14 41.3224 0.14 41.3224 0.819466667 40.1408 0.819466667 40.1408 4.6816 39.2774667 4.6816"></polygon>
                        <polygon id="Path" points="42.4246667 0.14 43.2824 0.14 43.2824 2.04586667 45.0361333 2.04586667 45.0361333 0.14 45.8929333 0.14 45.8929333 4.6816 45.0361333 4.6816 45.0361333 2.744 43.2824 2.744 43.2824 4.6816 42.4246667 4.6816"></polygon>
                        <polygon id="Path" points="47.2994667 0.14 50.0117333 0.14 50.0117333 0.819466667 48.1572 0.819466667 48.1572 2.02626667 49.6552 2.02626667 49.6552 2.6684 48.1572 2.6684 48.1572 4.00213333 50.1134667 4.00213333 50.1134667 4.6816 47.2994667 4.6816 47.2994667 0.14"></polygon>
                    </g>
                </g>
            </g>
        </g>
    </g>
</svg>