<?xml version="1.0" encoding="UTF-8"?>
<svg width="59px" height="54px" viewBox="0 0 59 54" version="1.1" xmlns="http://www.w3.org/2000/svg" xmlns:xlink="http://www.w3.org/1999/xlink">
    <!-- Generator: sketchtool 59.1 (101010) - https://sketch.com -->
    <title>C4792105-D8D5-4CF4-88E9-4F631EE91333</title>
    <desc>Created with sketchtool.</desc>
    <g id="Editor-|-New-10.11.19" stroke="none" stroke-width="1" fill="none" fill-rule="evenodd" stroke-linecap="round" stroke-linejoin="round">
        <g id="My-account" transform="translate(-1197.000000, -101.000000)" stroke-width="1.3">
            <g id="Dropdown" transform="translate(1177.000000, 83.000000)">
                <g id="Icons/My-account_Shop" transform="translate(21.000000, 19.000000)">
                    <g id="Shop">
                        <g id="Store" transform="translate(8.156863, 17.333333)">
                            <polyline id="Stroke-2" stroke="#00051C" points="36.6141 14.1782333 36.6141 34.5832333 8.0581 34.5832333 3.3861 34.5832333 3.3861 14.1782333"></polyline>
                            <path d="M32.9061,0.0835333333 L7.0941,0.0835333333 L0.6231,9.67153333 C0.6231,11.8995333 2.3581,13.7065333 4.4991,13.7065333 C6.6381,13.7065333 8.3741,11.8995333 8.3741,9.67153333 C8.3741,11.8995333 10.1091,13.7065333 12.2491,13.7065333 C14.3891,13.7065333 16.1251,11.8995333 16.1251,9.67153333 C16.1251,11.8995333 17.8591,13.7065333 20.0001,13.7065333 C22.1401,13.7065333 23.8751,11.8995333 23.8751,9.67153333 C23.8751,11.8995333 25.6101,13.7065333 27.7511,13.7065333 C29.8911,13.7065333 31.6261,11.8995333 31.6261,9.67153333 C31.6261,11.8995333 33.3611,13.7065333 35.5011,13.7065333 C37.6411,13.7065333 39.3771,11.8995333 39.3771,9.67153333 L32.9061,0.0835333333 Z" id="Stroke-3" stroke="#00051C"></path>
                            <polygon id="Stroke-5" stroke="#00051C" points="31.0877 27.2817333 31.0877 20.9377333 22.7037 20.9377333 22.7067 27.2817333"></polygon>
                            <polyline id="Stroke-7" stroke="#00051C" points="17.2957 34.3569333 17.2957 18.5539333 8.9117 18.5539333 8.9147 34.3569333"></polyline>
                            <line x1="38.3571922" y1="9.17243333" x2="1.64240761" y2="9.17243333" id="Stroke-9" stroke="#00051C"></line>
                            <line x1="14.0584" y1="23.4360255" x2="14.0584" y2="27.4752407" id="Stroke-11" stroke="#3357FF"></line>
                        </g>
                        <g id="Confetti" stroke="#3357FF">
                            <g id="Group-2" transform="translate(52.000000, 21.411765)">
                                <line x1="2.45334601" y1="4.96483812" x2="2.51120283" y2="-4.17443857e-14" id="Stroke-1"></line>
                                <line x1="4.96483812" y1="2.48234674" x2="-4.61852778e-14" y2="2.48234674" id="Stroke-2"></line>
                            </g>
                            <polygon id="Stroke-22" points="2.16963064 23.6839726 1.08481532 24.3102727 4.3298698e-14 24.9365727 4.3298698e-14 23.6839726 4.3298698e-14 22.4313725 1.08481532 23.0576726"></polygon>
                            <polygon id="Stroke-20" points="39.005928 2.50520018 36.8362973 3.75780027 34.6666667 5.01040036 34.6666667 2.50520018 34.6666667 9.76996262e-15 36.8362973 1.25260009"></polygon>
                            <path d="M47.625171,10.5576835 C47.625171,10.7572896 47.4631719,10.9192886 47.2635659,10.9192886 C47.0639599,10.9192886 46.9019608,10.7572896 46.9019608,10.5576835 C46.9019608,10.3580775 47.0639599,10.1960784 47.2635659,10.1960784 C47.4631719,10.1960784 47.625171,10.3580775 47.625171,10.5576835 Z" id="Stroke-26"></path>
                            <g id="Group" transform="translate(21.411765, 7.137255)">
                                <line x1="1.42985891" y1="2.89284086" x2="1.46312658" y2="-9.76996262e-14" id="Stroke-12"></line>
                                <line x1="2.89284086" y1="1.44642043" x2="3.41060513e-13" y2="1.44642043" id="Stroke-13"></line>
                            </g>
                            <path d="M9.4373005,9.30688554 C9.4373005,10.5052449 8.46602918,11.4765162 7.26766986,11.4765162 C6.06931053,11.4765162 5.09803922,10.5052449 5.09803922,9.30688554 C5.09803922,8.10852622 6.06931053,7.1372549 7.26766986,7.1372549 C8.46602918,7.1372549 9.4373005,8.10852622 9.4373005,9.30688554 Z" id="Stroke-14"></path>
                        </g>
                    </g>
                </g>
            </g>
        </g>
    </g>
</svg>