<?xml version="1.0" encoding="UTF-8"?>
<svg width="24px" height="24px" viewBox="0 0 24 24" version="1.1" xmlns="http://www.w3.org/2000/svg" xmlns:xlink="http://www.w3.org/1999/xlink">
    <title>FFA102CD-D748-494B-908D-39C81F4432E6</title>
    <g id="Design" stroke="none" stroke-width="1" fill="none" fill-rule="evenodd">
        <g id="Share_link_modal_branded_1_hover-&amp;-Clicked" transform="translate(-998.000000, -178.000000)">
            <g id="popup" transform="translate(368.000000, 80.000000)">
                <g id="02-Icons-/-16x16-/-icn16_check_small_1" transform="translate(630.000000, 98.000000)">
                    <g id="02-Icons-/-24x24-/-icn24_success_medium">
                        <rect id="Rectangle" x="0" y="0" width="24" height="24"></rect>
                        <path d="M11.9455483,1.24392003 C17.8826094,1.24392003 22.6955483,6.05685897 22.6955483,11.99392 C22.6955483,17.9309811 17.8826094,22.74392 11.9455483,22.74392 C6.00848724,22.74392 1.1955483,17.9309811 1.1955483,11.99392 C1.1955483,6.05685897 6.00848724,1.24392003 11.9455483,1.24392003 Z M11.9455483,2.74392003 C6.83691437,2.74392003 2.6955483,6.88528609 2.6955483,11.99392 C2.6955483,17.102554 6.83691437,21.24392 11.9455483,21.24392 C17.0541822,21.24392 21.1955483,17.102554 21.1955483,11.99392 C21.1955483,6.88528609 17.0541822,2.74392003 11.9455483,2.74392003 Z M17.4758784,8.46358994 C17.742145,8.72985651 17.766351,9.14652019 17.5484965,9.44013168 L17.4758784,9.52425012 L10.4758784,16.5242501 C10.2096118,16.7905167 9.79294814,16.8147227 9.49933665,16.5968683 L9.41521822,16.5242501 L6.41521822,13.5242501 C6.122325,13.2313569 6.122325,12.7564832 6.41521822,12.4635899 C6.68148478,12.1973234 7.09814846,12.1731173 7.39175996,12.3909718 L7.47587839,12.4635899 L9.9455483,14.93292 L16.4152182,8.46358994 C16.7081114,8.17069673 17.1829852,8.17069673 17.4758784,8.46358994 Z" id="Combined-Shape-Copy" fill="#008559" fill-rule="nonzero"></path>
                    </g>
                </g>
            </g>
        </g>
    </g>
</svg>