<?xml version="1.0" encoding="UTF-8"?>
<svg width="55px" height="55px" viewBox="0 0 55 55" version="1.1" xmlns="http://www.w3.org/2000/svg" xmlns:xlink="http://www.w3.org/1999/xlink">
    <!-- Generator: sketchtool 55.1 (78136) - https://sketchapp.com -->
    <title>166A415F-169A-4DA0-802B-1FAB066E9014</title>
    <desc>Created with sketchtool.</desc>
    <defs>
        <circle id="path-1" cx="27.5" cy="27.5" r="27.5"></circle>
    </defs>
    <g id="share-page-Copy-icon" stroke="none" stroke-width="1" fill="none" fill-rule="evenodd">
        <g id="share-project_desktop" transform="translate(-964.000000, -461.000000)">
            <g id="Group-2" transform="translate(964.000000, 461.000000)">
                <g id="ic_copylink">
                    <g id="ic_copy">
                        <mask id="mask-2" fill="white">
                            <use xlink:href="#path-1"></use>
                        </mask>
                        <use fill="#000000" xlink:href="#path-1"></use>
                        <g transform="translate(17.000000, 17.000000)" id="Group" stroke="#FFFFFF" stroke-linecap="round" stroke-linejoin="round" stroke-width="2.7">
                            <g>
                                <path d="M7.875,11.4802381 C8.78740326,12.7000157 10.1846087,13.4633736 11.7039824,13.5721881 C13.2233561,13.6810027 14.7150841,13.1245445 15.792,12.0472381 L18.942,8.89723811 C20.9316041,6.83724895 20.90315,3.56279303 18.8780475,1.53769059 C16.8529451,-0.487411854 13.5784892,-0.515865991 11.5185,1.47373811 L9.7125,3.26923811" id="Path"></path>
                                <path d="M12.5407381,9.38023811 C11.6283348,8.16046054 10.2311294,7.39710266 8.71175575,7.2882881 C7.19238206,7.17947354 5.70065402,7.73593168 4.62373811,8.81323811 L1.47373811,11.9632381 C-0.515865991,14.0232273 -0.487411854,17.2976832 1.53769059,19.3227856 C3.56279303,21.3478881 6.83724895,21.3763422 8.89723811,19.3867381 L10.6927381,17.5912381" id="Path"></path>
                            </g>
                        </g>
                    </g>
                </g>
            </g>
        </g>
    </g>
</svg>