<?xml version="1.0" encoding="UTF-8"?>
<svg width="40px" height="40px" viewBox="0 0 40 40" version="1.1" xmlns="http://www.w3.org/2000/svg" xmlns:xlink="http://www.w3.org/1999/xlink">
    <title>169FD248-F4D0-4439-BBD7-2B83217255AD</title>
    <g id="Design" stroke="none" stroke-width="1" fill="none" fill-rule="evenodd">
        <g id="Share_link_modal" transform="translate(-939.000000, -244.000000)" fill-rule="nonzero">
            <g id="icon_Email" transform="translate(939.000000, 244.000000)">
                <circle id="icon_Email_round_bg" fill="#EDEEF2" cx="20" cy="20" r="20"></circle>
                <path d="M30,12.25 C30.4142136,12.25 30.75,12.5857864 30.75,13 L30.75,13 L30.75,27 C30.75,27.4142136 30.4142136,27.75 30,27.75 L30,27.75 L10,27.75 C9.58578644,27.75 9.25,27.4142136 9.25,27 L9.25,27 L9.25,13 C9.25,12.5857864 9.58578644,12.25 10,12.25 L10,12.25 Z M16.9212765,20.2375294 L11.755,26.25 L28.234,26.25 L23.0682765,20.2465294 L20,23.0090218 L16.9212765,20.2375294 Z M29.25,14.683 L24.1832765,19.2435294 L29.25,25.131 L29.25,14.683 Z M10.75,14.684 L10.75,25.118 L15.8052765,19.2335294 L10.75,14.684 Z M28.045,13.75 L11.954,13.75 L19.999,20.991 L28.045,13.75 Z" fill="#0E1114"></path>
            </g>
        </g>
    </g>
</svg>