<?xml version="1.0" encoding="UTF-8"?>
<svg width="20px" height="20px" viewBox="0 0 20 20" version="1.1" xmlns="http://www.w3.org/2000/svg" xmlns:xlink="http://www.w3.org/1999/xlink">
    <title>CF6036E2-22C3-4844-AC96-D748A9145039</title>
    <g id="Design" stroke="none" stroke-width="1" fill="none" fill-rule="evenodd">
        <g id="Share_link_modal-+-Copy-Link_2" transform="translate(-1004.000000, -254.000000)" fill="#0E1114" fill-rule="nonzero">
            <g id="02-Icons-/-24x24-/-icn24_link_chain" transform="translate(1004.000000, 254.000000)">
                <path d="M8.30383244,6.54649003 L8.57159142,6.55881605 C10.0909651,6.66763061 11.4881705,7.4309885 12.4005738,8.65076606 C12.6486788,8.9824538 12.5809217,9.45246873 12.2492339,9.70057378 C11.9175462,9.94867884 11.4475313,9.88092168 11.1994262,9.54923394 C10.5477096,8.67796425 9.54970574,8.13270862 8.46443882,8.05498393 C7.45152302,7.98244089 6.45580897,8.32384531 5.70206184,8.99540222 L5.54433009,9.14433009 L2.85346615,11.8350338 C1.43232037,13.3064547 1.45264475,15.6453518 2.8991465,17.0918535 C4.29576887,18.4884759 6.52430319,18.5555821 7.99236058,17.2876307 L8.14666991,17.1466699 L9.68566991,15.6076699 C9.97856313,15.3147767 10.4534369,15.3147767 10.7463301,15.6076699 C11.0125966,15.8739365 11.0368027,16.2906002 10.8189482,16.5842117 L10.7463301,16.6683301 L9.19803385,18.2164662 C7.13804469,20.2060703 3.86358877,20.1776161 1.83848632,18.1525137 C-0.127054281,16.1869731 -0.211669277,13.0444896 1.6125706,10.9693191 L1.78366991,10.7836699 L4.48357378,8.08376606 C5.4971417,7.0698306 6.87815565,6.5172694 8.30383244,6.54649003 Z M18.1615137,1.84748632 C20.1270543,3.81302693 20.2116693,6.95551039 18.3874294,9.03068092 L18.2163301,9.21633009 L15.5164262,11.9162339 C14.4395103,12.9935404 12.9477823,13.5499985 11.4284086,13.4411839 C9.90903489,13.3323694 8.51182948,12.5690115 7.59942622,11.3492339 C7.35132116,11.0175462 7.41907832,10.5475313 7.75076606,10.2994262 C8.0824538,10.0513212 8.55246873,10.1190783 8.80057378,10.4507661 C9.4522904,11.3220358 10.4502943,11.8672914 11.5355612,11.9450161 C12.548477,12.0175591 13.544191,11.6761547 14.2979382,11.0045978 L14.4556699,10.8556699 L17.1465338,8.16496615 C18.5676796,6.69354533 18.5473552,4.35464824 17.1008535,2.9081465 C15.7042311,1.51152412 13.4756968,1.44441786 12.0062457,2.71375888 L11.8517817,2.85487398 L10.3037817,4.39387398 C10.0100358,4.68591204 9.53516408,4.68452757 9.24312602,4.39078169 C8.97763688,4.12373997 8.95464569,3.70700749 9.17335523,3.41403238 L9.24621831,3.33012602 L10.8019662,1.78353385 C12.8619553,-0.206070254 16.1364112,-0.177616117 18.1615137,1.84748632 Z"></path>
            </g>
        </g>
    </g>
</svg>