<?xml version="1.0" encoding="UTF-8"?>
<svg width="40px" height="40px" viewBox="0 0 40 40" version="1.1" xmlns="http://www.w3.org/2000/svg" xmlns:xlink="http://www.w3.org/1999/xlink">
    <title>D162542C-8D17-491C-9D32-BDA6EFD68081</title>
    <g id="Design" stroke="none" stroke-width="1" fill="none" fill-rule="evenodd">
        <g id="Share_link_modal" transform="translate(-843.000000, -244.000000)" fill-rule="nonzero">
            <g id="logo_Linkedin" transform="translate(843.000000, 244.000000)">
                <circle id="Oval" fill="#006699" cx="20" cy="20" r="20"></circle>
                <path d="M24.5577541,16.2603774 C27.0963913,16.2603774 29,17.8997904 29,21.4230009 L29,21.4230009 L29,28 L25.1417702,28 L25.1417702,21.8635719 C25.1417702,20.3215733 24.5832432,19.2697015 23.1870116,19.2697015 C22.1210732,19.2697015 21.486182,19.9790955 21.2072448,20.6640511 C21.1053572,20.9091145 21.0802803,21.2515923 21.0802803,21.5944095 L21.0802803,21.5944095 L21.0802803,28 L17.2217413,28 C17.2217413,28 17.272479,17.6058501 17.2217413,16.5295398 L17.2217413,16.5295398 L21.0803834,16.5295398 L21.08,18.154 L21.1202548,18.0933711 C21.6178996,17.3499869 22.4834542,16.351661 24.3035828,16.2662553 Z M15.0866698,16.5295398 L15.0866698,28 L11.2280964,28 L11.2280964,16.5295398 L15.0866698,16.5295398 Z M13.1828893,11 C14.5029285,11 15.3153501,11.8563642 15.340427,12.9818908 C15.340427,14.0826395 14.5029285,14.9634421 13.1573659,14.9634421 L13.1572972,14.9634421 L13.1322203,14.9634421 C11.8373267,14.9634421 11,14.0826395 11,12.9818908 C11,11.8563642 11.8629876,11 13.1828893,11 Z" id="Combined-Shape" fill="#FFFFFF"></path>
            </g>
        </g>
    </g>
</svg>