<?xml version="1.0" encoding="UTF-8"?>
<svg width="40px" height="40px" viewBox="0 0 40 40" version="1.1" xmlns="http://www.w3.org/2000/svg" xmlns:xlink="http://www.w3.org/1999/xlink">
    <title>F7BC417D-DA0B-4520-967A-FB7EC864D684</title>
    <defs>
        <linearGradient x1="50%" y1="0%" x2="50%" y2="100.001258%" id="share-popup-linearGradient">
            <stop stop-color="#00B2FF" offset="0%"></stop>
            <stop stop-color="#006AFF" offset="100%"></stop>
        </linearGradient>
    </defs>
    <g id="share-page-messenger" stroke="none" stroke-width="1" fill="none" fill-rule="evenodd">
        <g id="share-project_desktop" transform="translate(-555.000000, -244.000000)">
            <g id="pop-up" transform="translate(555.000000, 244.000000)">
                <circle id="socials" fill="url(#share-popup-linearGradient)" cx="20" cy="20" r="20"></circle>
                <g id="messenger" transform="translate(9.000000, 9.000000)" fill="#FFFFFF">
                    <path d="M10.896875,0 C4.75779049,0 0,4.4968794 0,10.570188 C0,13.7471642 1.30236293,16.492212 3.42253961,18.3887506 C3.60013456,18.5488053 3.70756854,18.7702509 3.71633866,19.0092367 L3.77553697,20.9474334 C3.79526974,21.5657269 4.43329603,21.9669599 4.99896881,21.719204 L7.16080357,20.7654533 C7.34497611,20.6843297 7.54888141,20.668982 7.74182407,20.7216027 C8.73504024,20.995669 9.79403232,21.140376 10.896875,21.140376 C17.0359595,21.140376 21.79375,16.6434966 21.79375,10.570188 C21.79375,4.4968794 17.0359595,0 10.896875,0 Z M17.4393851,8.13209444 L14.238291,13.2099943 C13.729624,14.0168454 12.637744,14.2185582 11.8747435,13.6463078 L9.32921592,11.7366141 C9.09461519,11.5612116 8.77450578,11.5634042 8.54209759,11.7388066 L5.10421026,14.3479175 C4.64597145,14.6965298 4.04521818,14.1462047 4.35436494,13.659463 L7.555459,8.58156313 C8.06412601,7.77471202 9.15600604,7.57299925 9.91900654,8.14524962 L12.4645341,10.0549434 C12.6991348,10.2303458 13.0192442,10.2281533 13.2516524,10.0527509 L16.6895397,7.44363996 C17.1477785,7.09502767 17.7485318,7.64535274 17.4393851,8.13209444 Z" id="Shape"></path>
                </g>
            </g>
        </g>
    </g>
</svg>