<?xml version="1.0" encoding="UTF-8"?>
<svg width="40px" height="40px" viewBox="0 0 40 40" version="1.1" xmlns="http://www.w3.org/2000/svg" xmlns:xlink="http://www.w3.org/1999/xlink">
    <title>E81EB3EC-8901-4E9F-84F8-2CB72136C0DF</title>
    <g id="Design" stroke="none" stroke-width="1" fill="none" fill-rule="evenodd">
        <g id="Share_link_modal" transform="translate(-651.000000, -244.000000)">
            <g id="logo_twitter" transform="translate(651.000000, 244.000000)">
                <circle id="Oval" fill="#1DA1F2" cx="20" cy="20" r="20"></circle>
                <path d="M29.0130685,15.2333002 C28.6321811,15.4025063 28.2367904,15.5359954 27.8310761,15.6326367 C28.2781267,15.2070462 28.6142506,14.674723 28.8038793,14.0805544 L28.8038793,14.0805544 C28.8580052,13.9109296 28.6741025,13.7642507 28.5212125,13.8550719 L28.5212125,13.8550719 C27.9567986,14.1904694 27.3488331,14.4420803 26.71416,14.6029957 C26.6773377,14.6123332 26.6393451,14.6170648 26.6012271,14.6170648 C26.4856192,14.6170648 26.3732296,14.5740619 26.2848309,14.4960119 C25.6095738,13.8997915 24.7410936,13.5714286 23.8394272,13.5714286 C23.449261,13.5714286 23.0553332,13.6323528 22.6685525,13.7525265 C21.470176,14.1248973 20.5455218,15.1152201 20.2554154,16.3370552 C20.1465784,16.7953481 20.1171122,17.2540596 20.167769,17.7004188 C20.1735787,17.7517125 20.1493788,17.7875133 20.1344576,17.8043041 C20.1082514,17.8337404 20.0710947,17.850615 20.032517,17.850615 C20.028212,17.850615 20.0237816,17.8504056 20.019393,17.8499869 C17.3961889,17.6058292 15.0306993,16.3397351 13.358648,14.2849752 L13.358648,14.2849752 C13.2733841,14.1801688 13.1098779,14.1930236 13.0419175,14.3098055 L13.0419175,14.3098055 C12.7144872,14.8725699 12.5414515,15.5162316 12.5414515,16.1711989 C12.5414515,17.1749628 12.9439893,18.120901 13.6431956,18.8104966 C13.3491603,18.7406536 13.064571,18.6306549 12.8002109,18.4835574 L12.8002109,18.4835574 C12.672315,18.4123744 12.5149528,18.5038654 12.5131556,18.6504187 L12.5131556,18.6504187 C12.4948489,20.1415767 13.3662967,21.4684276 14.6717547,22.0659041 C14.645465,22.0665322 14.6191753,22.0668253 14.5928438,22.0668253 C14.3859115,22.0668253 14.1763879,22.0468104 13.9701661,22.0073247 L13.9701661,22.0073247 C13.8261369,21.9797727 13.7051373,22.1166534 13.7498591,22.2565489 L13.7498591,22.2565489 C14.1735875,23.5818506 15.3126137,24.5587325 16.6756667,24.7805303 C15.5444146,25.541309 14.2270447,25.9426135 12.855925,25.9426135 L12.4284768,25.9423623 C12.2967774,25.9423623 12.1853909,26.0283681 12.1518287,26.1561625 C12.118768,26.2820308 12.1796648,26.414808 12.2919708,26.4802545 C13.8370039,27.3810543 15.5993346,27.8571429 17.389209,27.8571429 C18.9559342,27.8571429 20.4214711,27.5456545 21.7451522,26.9313871 C22.9586171,26.3682459 24.0309368,25.5632501 24.9323105,24.5387593 C25.7719933,23.5844048 26.4286094,22.4827015 26.883852,21.2642999 C27.3178205,20.1028866 27.5471972,18.8636327 27.5471972,17.6804876 L27.5471972,17.6241274 C27.5471554,17.4341526 27.6329209,17.2553995 27.7825508,17.1337185 C28.3503503,16.6718665 28.8447976,16.128196 29.2521002,15.5178228 L29.2521002,15.5178228 C29.3596414,15.3566561 29.190033,15.1546639 29.0130685,15.2333002 L29.0130685,15.2333002 Z" id="Path" fill="#FFFFFF" fill-rule="nonzero"></path>
            </g>
        </g>
    </g>
</svg>