<?xml version="1.0" encoding="UTF-8"?>
<svg width="40px" height="40px" viewBox="0 0 40 40" version="1.1" xmlns="http://www.w3.org/2000/svg" xmlns:xlink="http://www.w3.org/1999/xlink">
    <title>B9BC54BC-A204-4E18-97AC-91038E7A5082</title>
    <g id="Design" stroke="none" stroke-width="1" fill="none" fill-rule="evenodd">
        <g id="Share_link_modal" transform="translate(-747.000000, -244.000000)">
            <g id="logo_Whatsapp" transform="translate(747.000000, 244.000000)">
                <circle id="Oval" fill="#25D366" fill-rule="nonzero" cx="20" cy="20" r="20"></circle>
                <g id="WhatsApp_Logo" transform="translate(9.000000, 9.000000)" fill="#FFFFFF">
                    <g id="WA_Logo">
                        <path d="M18.6963507,3.21033175 C16.6616842,1.16249973 13.8919806,0.014292102 11.0052133,0.0218582095 C5.00995261,0.0218582095 0.135023697,4.89890995 0.132417062,10.8936493 C0.130005116,12.8015167 0.630619172,14.676302 1.58379147,16.3290047 L0.0411848341,21.9629858 L5.8049763,20.4511374 C7.39894525,21.3191952 9.18499001,21.7740855 11,21.7742654 L11.0046919,21.7742654 C16.9968246,21.7742654 21.8748815,16.8967299 21.8770208,10.9019905 C21.8860807,8.01631022 20.7408515,5.24681162 18.6963507,3.21033175 Z M11.0052133,19.9381517 L11,19.9381517 C9.38157284,19.9383661 7.79287098,19.5033322 6.40033175,18.6786256 L6.07033175,18.4826066 L2.64990521,19.3798104 L3.56327014,16.0433175 L3.34796209,15.701327 C2.44428801,14.2615202 1.96592018,12.5956364 1.96800266,10.8957346 C1.96800266,5.91341232 6.02393365,1.85957346 11.0088626,1.85957346 C15.9999375,1.86245191 20.0439118,5.91039381 20.0418965,10.9014692 C20.0398104,15.8843128 15.9859716,19.9381517 11.0052133,19.9381517 Z M15.9619905,13.1702844 C15.6903791,13.034218 14.3547393,12.3768246 14.105545,12.2840284 C13.8563507,12.1912322 13.6754502,12.1484834 13.4945498,12.4200948 C13.3136493,12.6917062 12.7928436,13.3063507 12.6343602,13.4851659 C12.4758768,13.663981 12.3173934,13.6895261 12.045782,13.5534597 C11.7741706,13.4173934 10.8988626,13.1306635 9.86090047,12.2047867 C9.05336493,11.4848341 8.50805687,10.5949289 8.34905213,10.3227962 C8.19004739,10.0506635 8.33236967,9.9057346 8.46843602,9.76862559 C8.59042654,9.64663507 8.74004739,9.45113744 8.87559242,9.29265403 C9.01113744,9.13417062 9.05701422,9.02052133 9.14720379,8.83962085 C9.23739336,8.65872038 9.19255924,8.49971564 9.12478673,8.36364929 C9.05701422,8.22758294 8.51379147,6.89037915 8.28701422,6.34611374 C8.06649289,5.8164455 7.8428436,5.88838863 7.67601896,5.88004739 C7.51962085,5.87222749 7.33611374,5.87014218 7.15469194,5.87014218 C6.87625821,5.87767762 6.61360173,6.00106948 6.43004739,6.21056872 C6.18137441,6.48218009 5.47966825,7.13957346 5.47966825,8.47677725 C5.47966825,9.81398104 6.45298578,11.1058294 6.58853081,11.2872512 C6.72407583,11.468673 8.50440758,14.2124171 11.2283412,15.3890521 C11.7341511,15.6073942 12.2511616,15.7988152 12.7772038,15.9625118 C13.4283412,16.1710427 14.0205687,16.139763 14.4881991,16.0699052 C15.0095261,15.9922275 16.0959716,15.4130332 16.3222275,14.7785782 C16.5484834,14.1441232 16.5484834,13.5998578 16.4786256,13.4862085 C16.4087678,13.3725592 16.2336019,13.3063507 15.9619905,13.1702844 L15.9619905,13.1702844 Z" id="Shape"></path>
                    </g>
                </g>
            </g>
        </g>
    </g>
</svg>