<?xml version="1.0" encoding="UTF-8"?>
<svg width="16px" height="16px" viewBox="0 0 16 16" version="1.1" xmlns="http://www.w3.org/2000/svg" xmlns:xlink="http://www.w3.org/1999/xlink">
    <!-- Generator: Sketch 61 (89581) - https://sketch.com -->
    <title>Icons/Profile_Support</title>
    <desc>Created with Sketch.</desc>
    <g id="Icons/Profile_Support" stroke="none" stroke-width="1" fill="none" fill-rule="evenodd" stroke-linecap="round" stroke-linejoin="round">
        <g id="Support" transform="translate(0.000000, 0.500000)" stroke="#00051C">
            <path d="M7.05695,5.0174875 C7.05695,5.4314875 6.721325,5.7674875 6.30695,5.7674875 C5.89295,5.7674875 5.55695,5.4314875 5.55695,5.0174875 C5.55695,4.6034875 5.89295,4.2674875 6.30695,4.2674875 C6.721325,4.2674875 7.05695,4.6034875 7.05695,5.0174875 Z" id="Stroke-2" stroke-width="0.8"></path>
            <path d="M13.0492625,5.0174875 C13.0492625,5.4314875 12.7132625,5.7674875 12.2992625,5.7674875 C11.8852625,5.7674875 11.5492625,5.4314875 11.5492625,5.0174875 C11.5492625,4.6034875 11.8852625,4.2674875 12.2992625,4.2674875 C12.7132625,4.2674875 13.0492625,4.6034875 13.0492625,5.0174875 Z" id="Stroke-4" stroke-width="0.8"></path>
            <path d="M10.053275,5.0174875 C10.053275,5.4314875 9.717275,5.7674875 9.303275,5.7674875 C8.889275,5.7674875 8.553275,5.4314875 8.553275,5.0174875 C8.553275,4.6034875 8.889275,4.2674875 9.303275,4.2674875 C9.717275,4.2674875 10.053275,4.6034875 10.053275,5.0174875 Z" id="Stroke-6" stroke-width="0.8"></path>
            <polygon id="Stroke-8" stroke-width="0.9" points="15.3926375 0.4374625 3.2137625 0.4374625 3.2137625 9.5975875 10.7602625 9.5975875 13.1426375 12.3113375 13.1426375 9.5975875 15.3926375 9.5975875"></polygon>
            <polyline id="Stroke-10" stroke-width="0.9" points="9.1278875 9.6278875 9.1278875 12.3635125 3.8482625 12.3635125 2.1817625 14.5623875 2.1817625 12.3635125 0.6071375 12.3635125 0.6071375 5.9551375 3.2130125 5.9551375"></polyline>
        </g>
    </g>
</svg>